<?xml version="1.0" encoding="UTF-8" standalone="no"?>
<!DOCTYPE svg PUBLIC "-//W3C//DTD SVG 1.1//EN"
 "http://www.w3.org/Graphics/SVG/1.1/DTD/svg11.dtd">
<!-- Generated by graphviz version 2.40.1 (20161225.0304)
 -->
<!-- Title: ModelOverview Pages: 1 -->
<svg width="652pt" height="44pt"
 viewBox="0.00 0.00 652.41 44.00" xmlns="http://www.w3.org/2000/svg" xmlns:xlink="http://www.w3.org/1999/xlink">
<g id="graph0" class="graph" transform="scale(1 1) rotate(0) translate(4 40)">
<title>ModelOverview</title>
<polygon fill="#ffffff" stroke="transparent" points="-4,4 -4,-40 648.4112,-40 648.4112,4 -4,4"/>
<!-- norm_consumption -->
<g id="node1" class="node">
<title>norm_consumption</title>
<ellipse fill="#55aa55" stroke="#55aa55" cx="62.8016" cy="-18" rx="62.6038" ry="18"/>
<text text-anchor="middle" x="62.8016" y="-13.8" font-family="Times,serif" font-size="14.00" fill="#000000">Model Inputs</text>
</g>
<!-- model -->
<g id="node2" class="node">
<title>model</title>
<polygon fill="#669999" stroke="#000000" points="197.8016,-36 143.8016,-36 143.8016,0 197.8016,0 197.8016,-36"/>
<text text-anchor="middle" x="170.8016" y="-13.8" font-family="Times,serif" font-size="14.00" fill="#000000">Model</text>
</g>
<!-- nw -->
<g id="node3" class="node">
<title>nw</title>
<polygon fill="#d46a6a" stroke="#d46a6a" points="301.7477,-10.5442 301.7477,-25.4558 276.5905,-36 241.0127,-36 215.8555,-25.4558 215.8555,-10.5442 241.0127,0 276.5905,0 301.7477,-10.5442"/>
<text text-anchor="middle" x="258.8016" y="-13.8" font-family="Times,serif" font-size="14.00" fill="#000000">Results</text>
</g>
<!-- Baseline -->
<g id="node4" class="node">
<title>Baseline</title>
<polygon fill="#d49a6a" stroke="#d49a6a" points="644.5209,-10.5442 644.5209,-25.4558 549.2021,-36 414.401,-36 319.0823,-25.4558 319.0823,-10.5442 414.401,0 549.2021,0 644.5209,-10.5442"/>
<text text-anchor="middle" x="481.8016" y="-13.8" font-family="Times,serif" font-size="14.00" fill="#000000">Control/Supplementary Information</text>
</g>
</g>
</svg>
