<?xml version="1.0" encoding="UTF-8" standalone="no"?>
<!DOCTYPE svg PUBLIC "-//W3C//DTD SVG 1.1//EN"
 "http://www.w3.org/Graphics/SVG/1.1/DTD/svg11.dtd">
<!-- Generated by graphviz version 2.40.1 (20161225.0304)
 -->
<!-- Title: ModelOverview Pages: 1 -->
<svg width="458pt" height="87pt"
 viewBox="0.00 0.00 458.25 87.20" xmlns="http://www.w3.org/2000/svg" xmlns:xlink="http://www.w3.org/1999/xlink">
<g id="graph0" class="graph" transform="scale(1 1) rotate(0) translate(4 83.196)">
<title>ModelOverview</title>
<polygon fill="#ffffff" stroke="transparent" points="-4,4 -4,-83.196 454.2536,-83.196 454.2536,4 -4,4"/>
<!-- norm_consumption -->
<g id="node1" class="node">
<title>norm_consumption</title>
<ellipse fill="#55aa55" stroke="#55aa55" cx="48.2346" cy="-39.598" rx="48.4703" ry="39.6962"/>
<text text-anchor="middle" x="48.2346" y="-45.598" font-family="Times,serif" font-size="20.00" fill="#000000">Model</text>
<text text-anchor="middle" x="48.2346" y="-21.598" font-family="Times,serif" font-size="20.00" fill="#000000">Inputs</text>
</g>
<!-- model -->
<g id="node2" class="node">
<title>model</title>
<polygon fill="#669999" stroke="#000000" points="182.4489,-57.598 114.0202,-57.598 114.0202,-21.598 182.4489,-21.598 182.4489,-57.598"/>
<text text-anchor="middle" x="148.2346" y="-33.598" font-family="Times,serif" font-size="20.00" fill="#000000">Model</text>
</g>
<!-- nw -->
<g id="node3" class="node">
<title>nw</title>
<polygon fill="#d46a6a" stroke="#d46a6a" points="314.3688,-29.4566 314.3688,-49.7394 280.9003,-64.0815 233.5688,-64.0815 200.1004,-49.7394 200.1004,-29.4566 233.5688,-15.1145 280.9003,-15.1145 314.3688,-29.4566"/>
<text text-anchor="middle" x="257.2346" y="-33.598" font-family="Times,serif" font-size="20.00" fill="#000000">Results</text>
</g>
<!-- Baseline -->
<g id="node4" class="node">
<title>Baseline</title>
<polygon fill="#d49a6a" stroke="#d49a6a" points="450.2725,-29.4566 450.2725,-49.7394 415.6889,-64.0815 366.7803,-64.0815 332.1966,-49.7394 332.1966,-29.4566 366.7803,-15.1145 415.6889,-15.1145 450.2725,-29.4566"/>
<text text-anchor="middle" x="391.2346" y="-33.598" font-family="Times,serif" font-size="20.00" fill="#000000">Control</text>
</g>
</g>
</svg>
