<?xml version="1.0" encoding="UTF-8" standalone="no"?>
<!DOCTYPE svg PUBLIC "-//W3C//DTD SVG 1.1//EN"
 "http://www.w3.org/Graphics/SVG/1.1/DTD/svg11.dtd">
<!-- Generated by graphviz version 2.40.1 (20161225.0304)
 -->
<!-- Title: ModelOverview Pages: 1 -->
<svg width="1281pt" height="816pt"
 viewBox="0.00 0.00 1281.24 815.56" xmlns="http://www.w3.org/2000/svg" xmlns:xlink="http://www.w3.org/1999/xlink">
<g id="graph0" class="graph" transform="scale(1 1) rotate(0) translate(4 811.5552)">
<title>ModelOverview</title>
<polygon fill="#ffffff" stroke="transparent" points="-4,4 -4,-811.5552 1277.2357,-811.5552 1277.2357,4 -4,4"/>
<!-- norm_consumption -->
<g id="node1" class="node">
<title>norm_consumption</title>
<ellipse fill="#55aa55" stroke="#55aa55" cx="1084.2332" cy="-652.7612" rx="87.5655" ry="39.6962"/>
<text text-anchor="middle" x="1084.2332" y="-658.7612" font-family="Times,serif" font-size="20.00" fill="#000000">Food</text>
<text text-anchor="middle" x="1084.2332" y="-634.7612" font-family="Times,serif" font-size="20.00" fill="#000000">Consumption</text>
</g>
<!-- model -->
<g id="node14" class="node">
<title>model</title>
<polygon fill="#669999" stroke="#000000" points="794.0661,-577.1633 676.4002,-577.1633 676.4002,-509.1633 794.0661,-509.1633 794.0661,-577.1633"/>
<text text-anchor="middle" x="735.2332" y="-550.6633" font-family="Times,serif" font-size="25.00" fill="#000000">Integrated</text>
<text text-anchor="middle" x="735.2332" y="-520.6633" font-family="Times,serif" font-size="25.00" fill="#000000">Model</text>
</g>
<!-- norm_consumption&#45;&gt;model -->
<g id="edge11" class="edge">
<title>norm_consumption&#45;&gt;model</title>
<path fill="none" stroke="#000000" d="M1011.9201,-630.0525C950.8318,-610.8686 863.946,-583.5835 803.911,-564.7305"/>
<polygon fill="#000000" stroke="#000000" points="804.7325,-561.32 794.1433,-561.6631 802.6352,-567.9984 804.7325,-561.32"/>
</g>
<!-- Waste -->
<g id="node2" class="node">
<title>Waste</title>
<ellipse fill="#88cc88" stroke="#88cc88" cx="1033.2332" cy="-767.9572" rx="46.7961" ry="22.7556"/>
<text text-anchor="middle" x="1033.2332" y="-761.9572" font-family="Times,serif" font-size="20.00" fill="#000000">Waste</text>
</g>
<!-- Waste&#45;&gt;norm_consumption -->
<g id="edge1" class="edge">
<title>Waste&#45;&gt;norm_consumption</title>
<path fill="none" stroke="#000000" d="M1043.0665,-745.7463C1048.6755,-733.0768 1055.9358,-716.6779 1062.7938,-701.1873"/>
<polygon fill="#000000" stroke="#000000" points="1066.1456,-702.262 1066.9936,-691.7011 1059.7449,-699.4282 1066.1456,-702.262"/>
</g>
<!-- Feed -->
<g id="node3" class="node">
<title>Feed</title>
<ellipse fill="#88cc88" stroke="#88cc88" cx="1136.2332" cy="-767.9572" rx="38.6046" ry="22.7556"/>
<text text-anchor="middle" x="1136.2332" y="-761.9572" font-family="Times,serif" font-size="20.00" fill="#000000">Feed</text>
</g>
<!-- Feed&#45;&gt;norm_consumption -->
<g id="edge2" class="edge">
<title>Feed&#45;&gt;norm_consumption</title>
<path fill="none" stroke="#000000" d="M1126.33,-746.0186C1120.6197,-733.3687 1113.2017,-716.9354 1106.1866,-701.3947"/>
<polygon fill="#000000" stroke="#000000" points="1109.194,-699.55 1101.8896,-691.8756 1102.8139,-702.4301 1109.194,-699.55"/>
</g>
<!-- Biofuel -->
<g id="node4" class="node">
<title>Biofuel</title>
<ellipse fill="#88cc88" stroke="#88cc88" cx="1233.2332" cy="-767.9572" rx="40.005" ry="18"/>
<text text-anchor="middle" x="1233.2332" y="-763.7572" font-family="Times,serif" font-size="14.00" fill="#000000">Biofuel</text>
</g>
<!-- Biofuel&#45;&gt;norm_consumption -->
<g id="edge3" class="edge">
<title>Biofuel&#45;&gt;norm_consumption</title>
<path fill="none" stroke="#000000" d="M1213.797,-752.0111C1204.8479,-744.7307 1194.0566,-736.0384 1184.2332,-728.3592 1169.3318,-716.7105 1153.0233,-704.2584 1137.9803,-692.8909"/>
<polygon fill="#000000" stroke="#000000" points="1139.8618,-689.9261 1129.7703,-686.6992 1135.6469,-695.5149 1139.8618,-689.9261"/>
</g>
<!-- std_resources -->
<g id="node5" class="node">
<title>std_resources</title>
<ellipse fill="#55aa55" stroke="#55aa55" cx="326.2332" cy="-652.7612" rx="94.385" ry="39.6962"/>
<text text-anchor="middle" x="326.2332" y="-658.7612" font-family="Times,serif" font-size="20.00" fill="#000000">Standard Food</text>
<text text-anchor="middle" x="326.2332" y="-634.7612" font-family="Times,serif" font-size="20.00" fill="#000000">Resources</text>
</g>
<!-- std_resources&#45;&gt;model -->
<g id="edge12" class="edge">
<title>std_resources&#45;&gt;model</title>
<path fill="none" stroke="#000000" d="M406.0634,-631.3695C481.8868,-611.0514 594.686,-580.8251 666.582,-561.5594"/>
<polygon fill="#000000" stroke="#000000" points="667.694,-564.885 676.4473,-558.9159 665.8821,-558.1236 667.694,-564.885"/>
</g>
<!-- stored_food -->
<g id="node6" class="node">
<title>stored_food</title>
<ellipse fill="#88cc88" stroke="#88cc88" cx="48.2332" cy="-767.9572" rx="48.4675" ry="39.6962"/>
<text text-anchor="middle" x="48.2332" y="-773.9572" font-family="Times,serif" font-size="20.00" fill="#000000">Stored</text>
<text text-anchor="middle" x="48.2332" y="-749.9572" font-family="Times,serif" font-size="20.00" fill="#000000">Food</text>
</g>
<!-- stored_food&#45;&gt;std_resources -->
<g id="edge4" class="edge">
<title>stored_food&#45;&gt;std_resources</title>
<path fill="none" stroke="#000000" d="M84.1408,-741.2719C91.2567,-736.6138 98.8227,-732.0771 106.2332,-728.3592 147.7563,-707.5268 196.3816,-690.1527 237.3433,-677.3349"/>
<polygon fill="#000000" stroke="#000000" points="238.5174,-680.6355 247.0394,-674.3406 236.4519,-673.9472 238.5174,-680.6355"/>
</g>
<!-- outdoor_crop -->
<g id="node7" class="node">
<title>outdoor_crop</title>
<ellipse fill="#88cc88" stroke="#88cc88" cx="173.2332" cy="-767.9572" rx="58.3905" ry="39.6962"/>
<text text-anchor="middle" x="173.2332" y="-773.9572" font-family="Times,serif" font-size="20.00" fill="#000000">Outdoor</text>
<text text-anchor="middle" x="173.2332" y="-749.9572" font-family="Times,serif" font-size="20.00" fill="#000000">Crop</text>
</g>
<!-- outdoor_crop&#45;&gt;std_resources -->
<g id="edge5" class="edge">
<title>outdoor_crop&#45;&gt;std_resources</title>
<path fill="none" stroke="#000000" d="M212.6345,-738.2914C230.6857,-724.7003 252.3731,-708.3716 271.9388,-693.6403"/>
<polygon fill="#000000" stroke="#000000" points="274.2938,-696.2483 280.1774,-687.4373 270.0833,-690.6562 274.2938,-696.2483"/>
</g>
<!-- meat -->
<g id="node8" class="node">
<title>meat</title>
<ellipse fill="#88cc88" stroke="#88cc88" cx="326.2332" cy="-767.9572" rx="76.4925" ry="22.7556"/>
<text text-anchor="middle" x="326.2332" y="-761.9572" font-family="Times,serif" font-size="20.00" fill="#000000">Meat/Dairy</text>
</g>
<!-- meat&#45;&gt;std_resources -->
<g id="edge6" class="edge">
<title>meat&#45;&gt;std_resources</title>
<path fill="none" stroke="#000000" d="M326.2332,-745.1982C326.2332,-733.0514 326.2332,-717.5934 326.2332,-702.8105"/>
<polygon fill="#000000" stroke="#000000" points="329.7333,-702.7329 326.2332,-692.733 322.7333,-702.733 329.7333,-702.7329"/>
</g>
<!-- Fish -->
<g id="node9" class="node">
<title>Fish</title>
<ellipse fill="#88cc88" stroke="#88cc88" cx="456.2332" cy="-767.9572" rx="35.8536" ry="22.7556"/>
<text text-anchor="middle" x="456.2332" y="-761.9572" font-family="Times,serif" font-size="20.00" fill="#000000">Fish</text>
</g>
<!-- Fish&#45;&gt;std_resources -->
<g id="edge7" class="edge">
<title>Fish&#45;&gt;std_resources</title>
<path fill="none" stroke="#000000" d="M435.3464,-749.449C418.9182,-734.8915 395.3716,-714.0264 374.3545,-695.4027"/>
<polygon fill="#000000" stroke="#000000" points="376.5493,-692.6711 366.7437,-688.6585 371.9068,-697.9102 376.5493,-692.6711"/>
</g>
<!-- res_resources -->
<g id="node10" class="node">
<title>res_resources</title>
<ellipse fill="#55aa55" stroke="#55aa55" cx="735.2332" cy="-652.7612" rx="94.4048" ry="39.6962"/>
<text text-anchor="middle" x="735.2332" y="-658.7612" font-family="Times,serif" font-size="20.00" fill="#000000">Resilient Food</text>
<text text-anchor="middle" x="735.2332" y="-634.7612" font-family="Times,serif" font-size="20.00" fill="#000000">Resources</text>
</g>
<!-- res_resources&#45;&gt;model -->
<g id="edge13" class="edge">
<title>res_resources&#45;&gt;model</title>
<path fill="none" stroke="#000000" d="M735.2332,-612.8838C735.2332,-604.6164 735.2332,-595.8585 735.2332,-587.4444"/>
<polygon fill="#000000" stroke="#000000" points="738.7333,-587.4075 735.2332,-577.4075 731.7333,-587.4076 738.7333,-587.4075"/>
</g>
<!-- Seaweed -->
<g id="node11" class="node">
<title>Seaweed</title>
<ellipse fill="#88cc88" stroke="#88cc88" cx="571.2332" cy="-767.9572" rx="61.6328" ry="22.7556"/>
<text text-anchor="middle" x="571.2332" y="-761.9572" font-family="Times,serif" font-size="20.00" fill="#000000">Seaweed</text>
</g>
<!-- Seaweed&#45;&gt;res_resources -->
<g id="edge8" class="edge">
<title>Seaweed&#45;&gt;res_resources</title>
<path fill="none" stroke="#000000" d="M599.7998,-747.8916C621.4131,-732.7101 651.7985,-711.3669 678.313,-692.7428"/>
<polygon fill="#000000" stroke="#000000" points="680.5983,-695.4148 686.7695,-686.8028 676.5747,-689.6866 680.5983,-695.4148"/>
</g>
<!-- Greenhouses -->
<g id="node12" class="node">
<title>Greenhouses</title>
<ellipse fill="#88cc88" stroke="#88cc88" cx="735.2332" cy="-767.9572" rx="84.1962" ry="22.7556"/>
<text text-anchor="middle" x="735.2332" y="-761.9572" font-family="Times,serif" font-size="20.00" fill="#000000">Greenhouses</text>
</g>
<!-- Greenhouses&#45;&gt;res_resources -->
<g id="edge9" class="edge">
<title>Greenhouses&#45;&gt;res_resources</title>
<path fill="none" stroke="#000000" d="M735.2332,-745.1982C735.2332,-733.0514 735.2332,-717.5934 735.2332,-702.8105"/>
<polygon fill="#000000" stroke="#000000" points="738.7333,-702.7329 735.2332,-692.733 731.7333,-702.733 738.7333,-702.7329"/>
</g>
<!-- industrial_food -->
<g id="node13" class="node">
<title>industrial_food</title>
<ellipse fill="#88cc88" stroke="#88cc88" cx="903.2332" cy="-767.9572" rx="65.5212" ry="39.6962"/>
<text text-anchor="middle" x="903.2332" y="-773.9572" font-family="Times,serif" font-size="20.00" fill="#000000">Industrial</text>
<text text-anchor="middle" x="903.2332" y="-749.9572" font-family="Times,serif" font-size="20.00" fill="#000000">Food</text>
</g>
<!-- industrial_food&#45;&gt;res_resources -->
<g id="edge10" class="edge">
<title>industrial_food&#45;&gt;res_resources</title>
<path fill="none" stroke="#000000" d="M859.5317,-737.9915C839.2761,-724.1025 814.9234,-707.4041 793.162,-692.4825"/>
<polygon fill="#000000" stroke="#000000" points="794.8753,-689.4135 784.6486,-686.6449 790.9167,-695.1867 794.8753,-689.4135"/>
</g>
<!-- nw -->
<g id="node15" class="node">
<title>nw</title>
<polygon fill="#d46a6a" stroke="#d46a6a" points="752.1025,-412.6069 752.1025,-447.9986 716.4461,-473.0243 666.0202,-473.0243 630.3638,-447.9986 630.3638,-412.6069 666.0202,-387.5812 716.4461,-387.5812 752.1025,-412.6069"/>
<text text-anchor="middle" x="691.2332" y="-436.3027" font-family="Times,serif" font-size="20.00" fill="#000000">Nuclear</text>
<text text-anchor="middle" x="691.2332" y="-412.3027" font-family="Times,serif" font-size="20.00" fill="#000000">Winter</text>
</g>
<!-- model&#45;&gt;nw -->
<g id="edge15" class="edge">
<title>model&#45;&gt;nw</title>
<path fill="none" stroke="#000000" d="M721.9123,-508.9951C718.6803,-500.7049 715.1506,-491.6512 711.6731,-482.7315"/>
<polygon fill="#000000" stroke="#000000" points="714.8301,-481.1934 707.9368,-473.1477 708.3082,-483.7361 714.8301,-481.1934"/>
</g>
<!-- Baseline -->
<g id="node16" class="node">
<title>Baseline</title>
<polygon fill="#d49a6a" stroke="#d49a6a" points="1005.1404,-298.4402 1005.1404,-318.723 967.1186,-333.0651 913.3477,-333.0651 875.3259,-318.723 875.3259,-298.4402 913.3477,-284.0982 967.1186,-284.0982 1005.1404,-298.4402"/>
<text text-anchor="middle" x="940.2332" y="-302.5816" font-family="Times,serif" font-size="20.00" fill="#000000">Baseline</text>
</g>
<!-- model&#45;&gt;Baseline -->
<g id="edge14" class="edge">
<title>model&#45;&gt;Baseline</title>
<path fill="none" stroke="#000000" d="M765.0419,-509.0531C804.4308,-463.9804 873.3259,-385.1436 911.9403,-340.9572"/>
<polygon fill="#000000" stroke="#000000" points="914.6103,-343.2208 918.5552,-333.3877 909.3394,-338.6145 914.6103,-343.2208"/>
</g>
<!-- nw_trade -->
<g id="node17" class="node">
<title>nw_trade</title>
<polygon fill="#ffaaaa" stroke="#ffaaaa" points="507.4801,-290.8858 507.4801,-326.2775 459.301,-351.3032 391.1654,-351.3032 342.9862,-326.2775 342.9862,-290.8858 391.1654,-265.8601 459.301,-265.8601 507.4801,-290.8858"/>
<text text-anchor="middle" x="425.2332" y="-314.5816" font-family="Times,serif" font-size="20.00" fill="#000000">With Trade</text>
<text text-anchor="middle" x="425.2332" y="-290.5816" font-family="Times,serif" font-size="20.00" fill="#000000">Global</text>
</g>
<!-- nw&#45;&gt;nw_trade -->
<g id="edge16" class="edge">
<title>nw&#45;&gt;nw_trade</title>
<path fill="none" stroke="#000000" d="M638.9975,-406.3998C598.2313,-387.7452 541.1725,-361.6352 496.2585,-341.0827"/>
<polygon fill="#000000" stroke="#000000" points="497.7074,-337.8967 487.1579,-336.9182 494.7947,-344.2619 497.7074,-337.8967"/>
</g>
<!-- nw_no_trade -->
<g id="node18" class="node">
<title>nw_no_trade</title>
<polygon fill="#ffaaaa" stroke="#ffaaaa" points="775.4487,-290.8858 775.4487,-326.2775 726.1164,-351.3032 656.35,-351.3032 607.0176,-326.2775 607.0176,-290.8858 656.35,-265.8601 726.1164,-265.8601 775.4487,-290.8858"/>
<text text-anchor="middle" x="691.2332" y="-314.5816" font-family="Times,serif" font-size="20.00" fill="#000000">No Trade</text>
<text text-anchor="middle" x="691.2332" y="-290.5816" font-family="Times,serif" font-size="20.00" fill="#000000">By Country</text>
</g>
<!-- nw&#45;&gt;nw_no_trade -->
<g id="edge17" class="edge">
<title>nw&#45;&gt;nw_no_trade</title>
<path fill="none" stroke="#000000" d="M691.2332,-387.3884C691.2332,-379.0252 691.2332,-370.1655 691.2332,-361.5225"/>
<polygon fill="#000000" stroke="#000000" points="694.7333,-361.5186 691.2332,-351.5187 687.7333,-361.5187 694.7333,-361.5186"/>
</g>
<!-- Baseline_trade -->
<g id="node23" class="node">
<title>Baseline_trade</title>
<polygon fill="#ffd1aa" stroke="#ffd1aa" points="1022.4801,-169.1647 1022.4801,-204.5564 974.301,-229.5821 906.1654,-229.5821 857.9862,-204.5564 857.9862,-169.1647 906.1654,-144.139 974.301,-144.139 1022.4801,-169.1647"/>
<text text-anchor="middle" x="940.2332" y="-192.8605" font-family="Times,serif" font-size="20.00" fill="#000000">With Trade</text>
<text text-anchor="middle" x="940.2332" y="-168.8605" font-family="Times,serif" font-size="20.00" fill="#000000">Global</text>
</g>
<!-- Baseline&#45;&gt;Baseline_trade -->
<g id="edge22" class="edge">
<title>Baseline&#45;&gt;Baseline_trade</title>
<path fill="none" stroke="#000000" d="M940.2332,-283.9496C940.2332,-271.3065 940.2332,-255.3839 940.2332,-240.1108"/>
<polygon fill="#000000" stroke="#000000" points="943.7333,-239.6892 940.2332,-229.6893 936.7333,-239.6893 943.7333,-239.6892"/>
</g>
<!-- Baseline_no_trade -->
<g id="node24" class="node">
<title>Baseline_no_trade</title>
<polygon fill="#ffd1aa" stroke="#ffd1aa" points="1208.4487,-169.1647 1208.4487,-204.5564 1159.1164,-229.5821 1089.35,-229.5821 1040.0176,-204.5564 1040.0176,-169.1647 1089.35,-144.139 1159.1164,-144.139 1208.4487,-169.1647"/>
<text text-anchor="middle" x="1124.2332" y="-192.8605" font-family="Times,serif" font-size="20.00" fill="#000000">No Trade</text>
<text text-anchor="middle" x="1124.2332" y="-168.8605" font-family="Times,serif" font-size="20.00" fill="#000000">By Country</text>
</g>
<!-- Baseline&#45;&gt;Baseline_no_trade -->
<g id="edge23" class="edge">
<title>Baseline&#45;&gt;Baseline_no_trade</title>
<path fill="none" stroke="#000000" d="M973.9816,-286.2561C999.0049,-269.7025 1033.7952,-246.6878 1063.5975,-226.9727"/>
<polygon fill="#000000" stroke="#000000" points="1065.8539,-229.6766 1072.2631,-221.2402 1061.9918,-223.8384 1065.8539,-229.6766"/>
</g>
<!-- nw_trade_no_res_food -->
<g id="node19" class="node">
<title>nw_trade_no_res_food</title>
<polygon fill="#ffaaaa" stroke="#ffaaaa" points="340.6284,-169.1647 340.6284,-204.5564 288.2619,-229.5821 214.2045,-229.5821 161.838,-204.5564 161.838,-169.1647 214.2045,-144.139 288.2619,-144.139 340.6284,-169.1647"/>
<text text-anchor="middle" x="251.2332" y="-192.8605" font-family="Times,serif" font-size="20.00" fill="#000000">No Resilient</text>
<text text-anchor="middle" x="251.2332" y="-168.8605" font-family="Times,serif" font-size="20.00" fill="#000000">Food</text>
</g>
<!-- nw_trade&#45;&gt;nw_trade_no_res_food -->
<g id="edge18" class="edge">
<title>nw_trade&#45;&gt;nw_trade_no_res_food</title>
<path fill="none" stroke="#000000" d="M375.3718,-273.7013C355.2471,-259.6231 331.8586,-243.2618 310.8442,-228.5612"/>
<polygon fill="#000000" stroke="#000000" points="312.8146,-225.6683 302.6143,-222.804 308.8021,-231.4041 312.8146,-225.6683"/>
</g>
<!-- nw_trade_res_food -->
<g id="node20" class="node">
<title>nw_trade_res_food</title>
<polygon fill="#ffaaaa" stroke="#ffaaaa" points="492.0666,-169.1647 492.0666,-204.5564 452.9165,-229.5821 397.5498,-229.5821 358.3997,-204.5564 358.3997,-169.1647 397.5498,-144.139 452.9165,-144.139 492.0666,-169.1647"/>
<text text-anchor="middle" x="425.2332" y="-192.8605" font-family="Times,serif" font-size="20.00" fill="#000000">Resilient</text>
<text text-anchor="middle" x="425.2332" y="-168.8605" font-family="Times,serif" font-size="20.00" fill="#000000">Food</text>
</g>
<!-- nw_trade&#45;&gt;nw_trade_res_food -->
<g id="edge19" class="edge">
<title>nw_trade&#45;&gt;nw_trade_res_food</title>
<path fill="none" stroke="#000000" d="M425.2332,-265.6673C425.2332,-257.3041 425.2332,-248.4444 425.2332,-239.8014"/>
<polygon fill="#000000" stroke="#000000" points="428.7333,-239.7976 425.2332,-229.7976 421.7333,-239.7976 428.7333,-239.7976"/>
</g>
<!-- nw_no_trade_no_res_food -->
<g id="node21" class="node">
<title>nw_no_trade_no_res_food</title>
<polygon fill="#ffaaaa" stroke="#ffaaaa" points="688.6284,-169.1647 688.6284,-204.5564 636.2619,-229.5821 562.2045,-229.5821 509.838,-204.5564 509.838,-169.1647 562.2045,-144.139 636.2619,-144.139 688.6284,-169.1647"/>
<text text-anchor="middle" x="599.2332" y="-192.8605" font-family="Times,serif" font-size="20.00" fill="#000000">No Resilient</text>
<text text-anchor="middle" x="599.2332" y="-168.8605" font-family="Times,serif" font-size="20.00" fill="#000000">Food</text>
</g>
<!-- nw_no_trade&#45;&gt;nw_no_trade_no_res_food -->
<g id="edge20" class="edge">
<title>nw_no_trade&#45;&gt;nw_no_trade_no_res_food</title>
<path fill="none" stroke="#000000" d="M658.7974,-265.6673C651.9953,-256.6678 644.7586,-247.0933 637.7592,-237.8326"/>
<polygon fill="#000000" stroke="#000000" points="640.508,-235.6648 631.6861,-229.7976 634.9237,-239.8857 640.508,-235.6648"/>
</g>
<!-- nw_no_trade_res_food -->
<g id="node22" class="node">
<title>nw_no_trade_res_food</title>
<polygon fill="#ffaaaa" stroke="#ffaaaa" points="840.0666,-169.1647 840.0666,-204.5564 800.9165,-229.5821 745.5498,-229.5821 706.3997,-204.5564 706.3997,-169.1647 745.5498,-144.139 800.9165,-144.139 840.0666,-169.1647"/>
<text text-anchor="middle" x="773.2332" y="-192.8605" font-family="Times,serif" font-size="20.00" fill="#000000">Resilient</text>
<text text-anchor="middle" x="773.2332" y="-168.8605" font-family="Times,serif" font-size="20.00" fill="#000000">Food</text>
</g>
<!-- nw_no_trade&#45;&gt;nw_no_trade_res_food -->
<g id="edge21" class="edge">
<title>nw_no_trade&#45;&gt;nw_no_trade_res_food</title>
<path fill="none" stroke="#000000" d="M720.1433,-265.6673C726.2154,-256.6539 732.676,-247.0637 738.9237,-237.7897"/>
<polygon fill="#000000" stroke="#000000" points="741.8997,-239.6364 744.5841,-229.3873 736.0942,-235.7254 741.8997,-239.6364"/>
</g>
<!-- opt -->
<g id="node25" class="node">
<title>opt</title>
<polygon fill="#669999" stroke="#000000" points="746.776,-108 625.6903,-108 625.6903,-72 746.776,-72 746.776,-108"/>
<text text-anchor="middle" x="686.2332" y="-84" font-family="Times,serif" font-size="20.00" fill="#000000">Optimization</text>
</g>
<!-- nw_trade_no_res_food&#45;&gt;opt -->
<g id="edge26" class="edge">
<title>nw_trade_no_res_food&#45;&gt;opt</title>
<path fill="none" stroke="#000000" d="M314.4121,-156.456C325.8183,-151.7691 337.7407,-147.3743 349.2332,-144 439.0015,-117.6429 546.2348,-103.2564 615.2403,-96.1007"/>
<polygon fill="#000000" stroke="#000000" points="615.9615,-99.5456 625.5577,-95.0552 615.2557,-92.5813 615.9615,-99.5456"/>
</g>
<!-- nw_trade_res_food&#45;&gt;opt -->
<g id="edge27" class="edge">
<title>nw_trade_res_food&#45;&gt;opt</title>
<path fill="none" stroke="#000000" d="M473.8696,-157.2705C482.7938,-152.4677 492.1594,-147.8229 501.2332,-144 538.0129,-128.504 580.6836,-115.7247 615.7699,-106.4948"/>
<polygon fill="#000000" stroke="#000000" points="616.6509,-109.8822 625.4537,-103.9863 614.8955,-103.1058 616.6509,-109.8822"/>
</g>
<!-- nw_no_trade_no_res_food&#45;&gt;opt -->
<g id="edge28" class="edge">
<title>nw_no_trade_no_res_food&#45;&gt;opt</title>
<path fill="none" stroke="#000000" d="M637.3926,-144.3761C646.0615,-134.7247 655.0177,-124.7534 662.8559,-116.0268"/>
<polygon fill="#000000" stroke="#000000" points="665.6212,-118.1859 669.6996,-108.4075 660.4135,-113.5083 665.6212,-118.1859"/>
</g>
<!-- nw_no_trade_res_food&#45;&gt;opt -->
<g id="edge29" class="edge">
<title>nw_no_trade_res_food&#45;&gt;opt</title>
<path fill="none" stroke="#000000" d="M738.5985,-148.3004C728.8022,-137.3938 718.3795,-125.7898 709.4334,-115.8298"/>
<polygon fill="#000000" stroke="#000000" points="711.9017,-113.34 702.6156,-108.2392 706.694,-118.0176 711.9017,-113.34"/>
</g>
<!-- Baseline_trade&#45;&gt;opt -->
<g id="edge24" class="edge">
<title>Baseline_trade&#45;&gt;opt</title>
<path fill="none" stroke="#000000" d="M880.4751,-157.4686C870.1494,-152.7495 859.45,-148.0812 849.2332,-144 819.1376,-131.978 785.2086,-120.4285 756.1291,-111.1182"/>
<polygon fill="#000000" stroke="#000000" points="757.0561,-107.7404 746.4658,-108.0492 754.9372,-114.412 757.0561,-107.7404"/>
</g>
<!-- Baseline_no_trade&#45;&gt;opt -->
<g id="edge25" class="edge">
<title>Baseline_no_trade&#45;&gt;opt</title>
<path fill="none" stroke="#000000" d="M1064.6473,-156.4702C1053.7343,-151.7527 1042.2945,-147.3438 1031.2332,-144 938.7249,-116.0356 827.6519,-101.9593 757.0046,-95.3182"/>
<polygon fill="#000000" stroke="#000000" points="757.159,-91.8178 746.8815,-94.3916 756.5208,-98.7886 757.159,-91.8178"/>
</g>
<!-- analysis -->
<g id="node26" class="node">
<title>analysis</title>
<polygon fill="#669999" stroke="#000000" points="729.2212,-36 643.2452,-36 643.2452,0 729.2212,0 729.2212,-36"/>
<text text-anchor="middle" x="686.2332" y="-12" font-family="Times,serif" font-size="20.00" fill="#000000">Analysis</text>
</g>
<!-- opt&#45;&gt;analysis -->
<g id="edge30" class="edge">
<title>opt&#45;&gt;analysis</title>
<path fill="none" stroke="#000000" d="M686.2332,-71.8314C686.2332,-64.131 686.2332,-54.9743 686.2332,-46.4166"/>
<polygon fill="#000000" stroke="#000000" points="689.7333,-46.4132 686.2332,-36.4133 682.7333,-46.4133 689.7333,-46.4132"/>
</g>
</g>
</svg>
