<?xml version="1.0" encoding="utf-8" standalone="no"?>
<!DOCTYPE svg PUBLIC "-//W3C//DTD SVG 1.1//EN"
  "http://www.w3.org/Graphics/SVG/1.1/DTD/svg11.dtd">
<svg xmlns:xlink="http://www.w3.org/1999/xlink" width="864pt" height="648pt" viewBox="0 0 864 648" xmlns="http://www.w3.org/2000/svg" version="1.1">
 <metadata>
  <rdf:RDF xmlns:dc="http://purl.org/dc/elements/1.1/" xmlns:cc="http://creativecommons.org/ns#" xmlns:rdf="http://www.w3.org/1999/02/22-rdf-syntax-ns#">
   <cc:Work>
    <dc:type rdf:resource="http://purl.org/dc/dcmitype/StillImage"/>
    <dc:date>2022-02-07T19:47:07.796279</dc:date>
    <dc:format>image/svg+xml</dc:format>
    <dc:creator>
     <cc:Agent>
      <dc:title>Matplotlib v3.5.1, https://matplotlib.org/</dc:title>
     </cc:Agent>
    </dc:creator>
   </cc:Work>
  </rdf:RDF>
 </metadata>
 <defs>
  <style type="text/css">*{stroke-linejoin: round; stroke-linecap: butt}</style>
 </defs>
 <g id="figure_1">
  <g id="patch_1">
   <path d="M 0 648 
L 864 648 
L 864 0 
L 0 0 
z
" style="fill: #ffffff"/>
  </g>
  <g id="axes_1">
   <g id="patch_2">
    <path d="M 108 144.474545 
L 777.6 144.474545 
L 777.6 77.76 
L 108 77.76 
z
" style="fill: #eaeaf2"/>
   </g>
   <g id="matplotlib.axis_1">
    <g id="xtick_1">
     <g id="line2d_1">
      <path d="M 130.90315 144.474545 
L 130.90315 77.76 
" clip-path="url(#pbe393f3a3d)" style="fill: none; stroke: #ffffff; stroke-linecap: round"/>
     </g>
    </g>
    <g id="xtick_2">
     <g id="line2d_2">
      <path d="M 238.281393 144.474545 
L 238.281393 77.76 
" clip-path="url(#pbe393f3a3d)" style="fill: none; stroke: #ffffff; stroke-linecap: round"/>
     </g>
    </g>
    <g id="xtick_3">
     <g id="line2d_3">
      <path d="M 345.659635 144.474545 
L 345.659635 77.76 
" clip-path="url(#pbe393f3a3d)" style="fill: none; stroke: #ffffff; stroke-linecap: round"/>
     </g>
    </g>
    <g id="xtick_4">
     <g id="line2d_4">
      <path d="M 453.037878 144.474545 
L 453.037878 77.76 
" clip-path="url(#pbe393f3a3d)" style="fill: none; stroke: #ffffff; stroke-linecap: round"/>
     </g>
    </g>
    <g id="xtick_5">
     <g id="line2d_5">
      <path d="M 560.416121 144.474545 
L 560.416121 77.76 
" clip-path="url(#pbe393f3a3d)" style="fill: none; stroke: #ffffff; stroke-linecap: round"/>
     </g>
    </g>
    <g id="xtick_6">
     <g id="line2d_6">
      <path d="M 667.794364 144.474545 
L 667.794364 77.76 
" clip-path="url(#pbe393f3a3d)" style="fill: none; stroke: #ffffff; stroke-linecap: round"/>
     </g>
    </g>
    <g id="xtick_7">
     <g id="line2d_7">
      <path d="M 775.172607 144.474545 
L 775.172607 77.76 
" clip-path="url(#pbe393f3a3d)" style="fill: none; stroke: #ffffff; stroke-linecap: round"/>
     </g>
    </g>
   </g>
   <g id="matplotlib.axis_2">
    <g id="ytick_1"/>
   </g>
   <g id="patch_3">
    <path d="M 285.776751 84.431455 
L 285.776751 137.803091 
L 415.835885 137.803091 
L 415.835885 84.431455 
L 285.776751 84.431455 
z
" clip-path="url(#pbe393f3a3d)" style="fill: #5875a4; stroke: #4c4c4c; stroke-width: 1.5; stroke-linejoin: miter"/>
   </g>
   <g id="line2d_8">
    <path d="M 285.776751 111.117273 
L 138.436364 111.117273 
" clip-path="url(#pbe393f3a3d)" style="fill: none; stroke: #4c4c4c; stroke-width: 1.5; stroke-linecap: round"/>
   </g>
   <g id="line2d_9">
    <path d="M 415.835885 111.117273 
L 610.712924 111.117273 
" clip-path="url(#pbe393f3a3d)" style="fill: none; stroke: #4c4c4c; stroke-width: 1.5; stroke-linecap: round"/>
   </g>
   <g id="line2d_10">
    <path d="M 138.436364 97.774364 
L 138.436364 124.460182 
" clip-path="url(#pbe393f3a3d)" style="fill: none; stroke: #4c4c4c; stroke-width: 1.5; stroke-linecap: round"/>
   </g>
   <g id="line2d_11">
    <path d="M 610.712924 97.774364 
L 610.712924 124.460182 
" clip-path="url(#pbe393f3a3d)" style="fill: none; stroke: #4c4c4c; stroke-width: 1.5; stroke-linecap: round"/>
   </g>
   <g id="line2d_12">
    <defs>
     <path id="m2e78e228c6" d="M -0 3.535534 
L 2.12132 0 
L -0 -3.535534 
L -2.12132 -0 
z
" style="stroke: #4c4c4c; stroke-linejoin: miter"/>
    </defs>
    <g clip-path="url(#pbe393f3a3d)">
     <use xlink:href="#m2e78e228c6" x="640.71448" y="111.117273" style="fill: #4c4c4c; stroke: #4c4c4c; stroke-linejoin: miter"/>
     <use xlink:href="#m2e78e228c6" x="747.163636" y="111.117273" style="fill: #4c4c4c; stroke: #4c4c4c; stroke-linejoin: miter"/>
     <use xlink:href="#m2e78e228c6" x="624.596956" y="111.117273" style="fill: #4c4c4c; stroke: #4c4c4c; stroke-linejoin: miter"/>
     <use xlink:href="#m2e78e228c6" x="671.749435" y="111.117273" style="fill: #4c4c4c; stroke: #4c4c4c; stroke-linejoin: miter"/>
     <use xlink:href="#m2e78e228c6" x="650.31383" y="111.117273" style="fill: #4c4c4c; stroke: #4c4c4c; stroke-linejoin: miter"/>
     <use xlink:href="#m2e78e228c6" x="625.430764" y="111.117273" style="fill: #4c4c4c; stroke: #4c4c4c; stroke-linejoin: miter"/>
     <use xlink:href="#m2e78e228c6" x="626.17108" y="111.117273" style="fill: #4c4c4c; stroke: #4c4c4c; stroke-linejoin: miter"/>
     <use xlink:href="#m2e78e228c6" x="621.834188" y="111.117273" style="fill: #4c4c4c; stroke: #4c4c4c; stroke-linejoin: miter"/>
     <use xlink:href="#m2e78e228c6" x="655.576925" y="111.117273" style="fill: #4c4c4c; stroke: #4c4c4c; stroke-linejoin: miter"/>
     <use xlink:href="#m2e78e228c6" x="630.174413" y="111.117273" style="fill: #4c4c4c; stroke: #4c4c4c; stroke-linejoin: miter"/>
     <use xlink:href="#m2e78e228c6" x="734.059757" y="111.117273" style="fill: #4c4c4c; stroke: #4c4c4c; stroke-linejoin: miter"/>
     <use xlink:href="#m2e78e228c6" x="620.182529" y="111.117273" style="fill: #4c4c4c; stroke: #4c4c4c; stroke-linejoin: miter"/>
     <use xlink:href="#m2e78e228c6" x="681.600414" y="111.117273" style="fill: #4c4c4c; stroke: #4c4c4c; stroke-linejoin: miter"/>
    </g>
   </g>
   <g id="line2d_13">
    <path d="M 349.106539 84.431455 
L 349.106539 137.803091 
" clip-path="url(#pbe393f3a3d)" style="fill: none; stroke: #4c4c4c; stroke-width: 1.5; stroke-linecap: round"/>
   </g>
   <g id="patch_4">
    <path d="M 108 144.474545 
L 108 77.76 
" style="fill: none; stroke: #ffffff; stroke-width: 1.25; stroke-linejoin: miter; stroke-linecap: square"/>
   </g>
   <g id="patch_5">
    <path d="M 777.6 144.474545 
L 777.6 77.76 
" style="fill: none; stroke: #ffffff; stroke-width: 1.25; stroke-linejoin: miter; stroke-linecap: square"/>
   </g>
   <g id="patch_6">
    <path d="M 108 144.474545 
L 777.6 144.474545 
" style="fill: none; stroke: #ffffff; stroke-width: 1.25; stroke-linejoin: miter; stroke-linecap: square"/>
   </g>
   <g id="patch_7">
    <path d="M 108 77.76 
L 777.6 77.76 
" style="fill: none; stroke: #ffffff; stroke-width: 1.25; stroke-linejoin: miter; stroke-linecap: square"/>
   </g>
   <g id="text_1">
    <!-- Monte Carlo results -->
    <g style="fill: #262626" transform="translate(384.524063 71.76)scale(0.12 -0.12)">
     <defs>
      <path id="DejaVuSans-4d" d="M 628 4666 
L 1569 4666 
L 2759 1491 
L 3956 4666 
L 4897 4666 
L 4897 0 
L 4281 0 
L 4281 4097 
L 3078 897 
L 2444 897 
L 1241 4097 
L 1241 0 
L 628 0 
L 628 4666 
z
" transform="scale(0.015625)"/>
      <path id="DejaVuSans-6f" d="M 1959 3097 
Q 1497 3097 1228 2736 
Q 959 2375 959 1747 
Q 959 1119 1226 758 
Q 1494 397 1959 397 
Q 2419 397 2687 759 
Q 2956 1122 2956 1747 
Q 2956 2369 2687 2733 
Q 2419 3097 1959 3097 
z
M 1959 3584 
Q 2709 3584 3137 3096 
Q 3566 2609 3566 1747 
Q 3566 888 3137 398 
Q 2709 -91 1959 -91 
Q 1206 -91 779 398 
Q 353 888 353 1747 
Q 353 2609 779 3096 
Q 1206 3584 1959 3584 
z
" transform="scale(0.015625)"/>
      <path id="DejaVuSans-6e" d="M 3513 2113 
L 3513 0 
L 2938 0 
L 2938 2094 
Q 2938 2591 2744 2837 
Q 2550 3084 2163 3084 
Q 1697 3084 1428 2787 
Q 1159 2491 1159 1978 
L 1159 0 
L 581 0 
L 581 3500 
L 1159 3500 
L 1159 2956 
Q 1366 3272 1645 3428 
Q 1925 3584 2291 3584 
Q 2894 3584 3203 3211 
Q 3513 2838 3513 2113 
z
" transform="scale(0.015625)"/>
      <path id="DejaVuSans-74" d="M 1172 4494 
L 1172 3500 
L 2356 3500 
L 2356 3053 
L 1172 3053 
L 1172 1153 
Q 1172 725 1289 603 
Q 1406 481 1766 481 
L 2356 481 
L 2356 0 
L 1766 0 
Q 1100 0 847 248 
Q 594 497 594 1153 
L 594 3053 
L 172 3053 
L 172 3500 
L 594 3500 
L 594 4494 
L 1172 4494 
z
" transform="scale(0.015625)"/>
      <path id="DejaVuSans-65" d="M 3597 1894 
L 3597 1613 
L 953 1613 
Q 991 1019 1311 708 
Q 1631 397 2203 397 
Q 2534 397 2845 478 
Q 3156 559 3463 722 
L 3463 178 
Q 3153 47 2828 -22 
Q 2503 -91 2169 -91 
Q 1331 -91 842 396 
Q 353 884 353 1716 
Q 353 2575 817 3079 
Q 1281 3584 2069 3584 
Q 2775 3584 3186 3129 
Q 3597 2675 3597 1894 
z
M 3022 2063 
Q 3016 2534 2758 2815 
Q 2500 3097 2075 3097 
Q 1594 3097 1305 2825 
Q 1016 2553 972 2059 
L 3022 2063 
z
" transform="scale(0.015625)"/>
      <path id="DejaVuSans-20" transform="scale(0.015625)"/>
      <path id="DejaVuSans-43" d="M 4122 4306 
L 4122 3641 
Q 3803 3938 3442 4084 
Q 3081 4231 2675 4231 
Q 1875 4231 1450 3742 
Q 1025 3253 1025 2328 
Q 1025 1406 1450 917 
Q 1875 428 2675 428 
Q 3081 428 3442 575 
Q 3803 722 4122 1019 
L 4122 359 
Q 3791 134 3420 21 
Q 3050 -91 2638 -91 
Q 1578 -91 968 557 
Q 359 1206 359 2328 
Q 359 3453 968 4101 
Q 1578 4750 2638 4750 
Q 3056 4750 3426 4639 
Q 3797 4528 4122 4306 
z
" transform="scale(0.015625)"/>
      <path id="DejaVuSans-61" d="M 2194 1759 
Q 1497 1759 1228 1600 
Q 959 1441 959 1056 
Q 959 750 1161 570 
Q 1363 391 1709 391 
Q 2188 391 2477 730 
Q 2766 1069 2766 1631 
L 2766 1759 
L 2194 1759 
z
M 3341 1997 
L 3341 0 
L 2766 0 
L 2766 531 
Q 2569 213 2275 61 
Q 1981 -91 1556 -91 
Q 1019 -91 701 211 
Q 384 513 384 1019 
Q 384 1609 779 1909 
Q 1175 2209 1959 2209 
L 2766 2209 
L 2766 2266 
Q 2766 2663 2505 2880 
Q 2244 3097 1772 3097 
Q 1472 3097 1187 3025 
Q 903 2953 641 2809 
L 641 3341 
Q 956 3463 1253 3523 
Q 1550 3584 1831 3584 
Q 2591 3584 2966 3190 
Q 3341 2797 3341 1997 
z
" transform="scale(0.015625)"/>
      <path id="DejaVuSans-72" d="M 2631 2963 
Q 2534 3019 2420 3045 
Q 2306 3072 2169 3072 
Q 1681 3072 1420 2755 
Q 1159 2438 1159 1844 
L 1159 0 
L 581 0 
L 581 3500 
L 1159 3500 
L 1159 2956 
Q 1341 3275 1631 3429 
Q 1922 3584 2338 3584 
Q 2397 3584 2469 3576 
Q 2541 3569 2628 3553 
L 2631 2963 
z
" transform="scale(0.015625)"/>
      <path id="DejaVuSans-6c" d="M 603 4863 
L 1178 4863 
L 1178 0 
L 603 0 
L 603 4863 
z
" transform="scale(0.015625)"/>
      <path id="DejaVuSans-73" d="M 2834 3397 
L 2834 2853 
Q 2591 2978 2328 3040 
Q 2066 3103 1784 3103 
Q 1356 3103 1142 2972 
Q 928 2841 928 2578 
Q 928 2378 1081 2264 
Q 1234 2150 1697 2047 
L 1894 2003 
Q 2506 1872 2764 1633 
Q 3022 1394 3022 966 
Q 3022 478 2636 193 
Q 2250 -91 1575 -91 
Q 1294 -91 989 -36 
Q 684 19 347 128 
L 347 722 
Q 666 556 975 473 
Q 1284 391 1588 391 
Q 1994 391 2212 530 
Q 2431 669 2431 922 
Q 2431 1156 2273 1281 
Q 2116 1406 1581 1522 
L 1381 1569 
Q 847 1681 609 1914 
Q 372 2147 372 2553 
Q 372 3047 722 3315 
Q 1072 3584 1716 3584 
Q 2034 3584 2315 3537 
Q 2597 3491 2834 3397 
z
" transform="scale(0.015625)"/>
      <path id="DejaVuSans-75" d="M 544 1381 
L 544 3500 
L 1119 3500 
L 1119 1403 
Q 1119 906 1312 657 
Q 1506 409 1894 409 
Q 2359 409 2629 706 
Q 2900 1003 2900 1516 
L 2900 3500 
L 3475 3500 
L 3475 0 
L 2900 0 
L 2900 538 
Q 2691 219 2414 64 
Q 2138 -91 1772 -91 
Q 1169 -91 856 284 
Q 544 659 544 1381 
z
M 1991 3584 
L 1991 3584 
z
" transform="scale(0.015625)"/>
     </defs>
     <use xlink:href="#DejaVuSans-4d"/>
     <use xlink:href="#DejaVuSans-6f" x="86.279297"/>
     <use xlink:href="#DejaVuSans-6e" x="147.460938"/>
     <use xlink:href="#DejaVuSans-74" x="210.839844"/>
     <use xlink:href="#DejaVuSans-65" x="250.048828"/>
     <use xlink:href="#DejaVuSans-20" x="311.572266"/>
     <use xlink:href="#DejaVuSans-43" x="343.359375"/>
     <use xlink:href="#DejaVuSans-61" x="413.183594"/>
     <use xlink:href="#DejaVuSans-72" x="474.462891"/>
     <use xlink:href="#DejaVuSans-6c" x="515.576172"/>
     <use xlink:href="#DejaVuSans-6f" x="543.359375"/>
     <use xlink:href="#DejaVuSans-20" x="604.541016"/>
     <use xlink:href="#DejaVuSans-72" x="636.328125"/>
     <use xlink:href="#DejaVuSans-65" x="675.191406"/>
     <use xlink:href="#DejaVuSans-73" x="736.714844"/>
     <use xlink:href="#DejaVuSans-75" x="788.814453"/>
     <use xlink:href="#DejaVuSans-6c" x="852.193359"/>
     <use xlink:href="#DejaVuSans-74" x="879.976562"/>
     <use xlink:href="#DejaVuSans-73" x="919.185547"/>
    </g>
   </g>
  </g>
  <g id="axes_2">
   <g id="patch_8">
    <path d="M 108 567 
L 777.6 567 
L 777.6 188.950909 
L 108 188.950909 
z
" style="fill: #eaeaf2"/>
   </g>
   <g id="matplotlib.axis_3">
    <g id="xtick_8">
     <g id="line2d_14">
      <path d="M 130.90315 567 
L 130.90315 188.950909 
" clip-path="url(#p5412413e4b)" style="fill: none; stroke: #ffffff; stroke-linecap: round"/>
     </g>
     <g id="text_2">
      <!-- 2000 -->
      <g style="fill: #262626" transform="translate(115.595962 584.858281)scale(0.11 -0.11)">
       <defs>
        <path id="DejaVuSans-Bold-32" d="M 1844 884 
L 3897 884 
L 3897 0 
L 506 0 
L 506 884 
L 2209 2388 
Q 2438 2594 2547 2791 
Q 2656 2988 2656 3200 
Q 2656 3528 2436 3728 
Q 2216 3928 1850 3928 
Q 1569 3928 1234 3808 
Q 900 3688 519 3450 
L 519 4475 
Q 925 4609 1322 4679 
Q 1719 4750 2100 4750 
Q 2938 4750 3402 4381 
Q 3866 4013 3866 3353 
Q 3866 2972 3669 2642 
Q 3472 2313 2841 1759 
L 1844 884 
z
" transform="scale(0.015625)"/>
        <path id="DejaVuSans-Bold-30" d="M 2944 2338 
Q 2944 3213 2780 3570 
Q 2616 3928 2228 3928 
Q 1841 3928 1675 3570 
Q 1509 3213 1509 2338 
Q 1509 1453 1675 1090 
Q 1841 728 2228 728 
Q 2613 728 2778 1090 
Q 2944 1453 2944 2338 
z
M 4147 2328 
Q 4147 1169 3647 539 
Q 3147 -91 2228 -91 
Q 1306 -91 806 539 
Q 306 1169 306 2328 
Q 306 3491 806 4120 
Q 1306 4750 2228 4750 
Q 3147 4750 3647 4120 
Q 4147 3491 4147 2328 
z
" transform="scale(0.015625)"/>
       </defs>
       <use xlink:href="#DejaVuSans-Bold-32"/>
       <use xlink:href="#DejaVuSans-Bold-30" x="69.580078"/>
       <use xlink:href="#DejaVuSans-Bold-30" x="139.160156"/>
       <use xlink:href="#DejaVuSans-Bold-30" x="208.740234"/>
      </g>
     </g>
    </g>
    <g id="xtick_9">
     <g id="line2d_15">
      <path d="M 238.281393 567 
L 238.281393 188.950909 
" clip-path="url(#p5412413e4b)" style="fill: none; stroke: #ffffff; stroke-linecap: round"/>
     </g>
     <g id="text_3">
      <!-- 2500 -->
      <g style="fill: #262626" transform="translate(222.974205 584.858281)scale(0.11 -0.11)">
       <defs>
        <path id="DejaVuSans-Bold-35" d="M 678 4666 
L 3669 4666 
L 3669 3781 
L 1638 3781 
L 1638 3059 
Q 1775 3097 1914 3117 
Q 2053 3138 2203 3138 
Q 3056 3138 3531 2711 
Q 4006 2284 4006 1522 
Q 4006 766 3489 337 
Q 2972 -91 2053 -91 
Q 1656 -91 1267 -14 
Q 878 63 494 219 
L 494 1166 
Q 875 947 1217 837 
Q 1559 728 1863 728 
Q 2300 728 2551 942 
Q 2803 1156 2803 1522 
Q 2803 1891 2551 2103 
Q 2300 2316 1863 2316 
Q 1603 2316 1309 2248 
Q 1016 2181 678 2041 
L 678 4666 
z
" transform="scale(0.015625)"/>
       </defs>
       <use xlink:href="#DejaVuSans-Bold-32"/>
       <use xlink:href="#DejaVuSans-Bold-35" x="69.580078"/>
       <use xlink:href="#DejaVuSans-Bold-30" x="139.160156"/>
       <use xlink:href="#DejaVuSans-Bold-30" x="208.740234"/>
      </g>
     </g>
    </g>
    <g id="xtick_10">
     <g id="line2d_16">
      <path d="M 345.659635 567 
L 345.659635 188.950909 
" clip-path="url(#p5412413e4b)" style="fill: none; stroke: #ffffff; stroke-linecap: round"/>
     </g>
     <g id="text_4">
      <!-- 3000 -->
      <g style="fill: #262626" transform="translate(330.352448 584.858281)scale(0.11 -0.11)">
       <defs>
        <path id="DejaVuSans-Bold-33" d="M 2981 2516 
Q 3453 2394 3698 2092 
Q 3944 1791 3944 1325 
Q 3944 631 3412 270 
Q 2881 -91 1863 -91 
Q 1503 -91 1142 -33 
Q 781 25 428 141 
L 428 1069 
Q 766 900 1098 814 
Q 1431 728 1753 728 
Q 2231 728 2486 893 
Q 2741 1059 2741 1369 
Q 2741 1688 2480 1852 
Q 2219 2016 1709 2016 
L 1228 2016 
L 1228 2791 
L 1734 2791 
Q 2188 2791 2409 2933 
Q 2631 3075 2631 3366 
Q 2631 3634 2415 3781 
Q 2200 3928 1806 3928 
Q 1516 3928 1219 3862 
Q 922 3797 628 3669 
L 628 4550 
Q 984 4650 1334 4700 
Q 1684 4750 2022 4750 
Q 2931 4750 3382 4451 
Q 3834 4153 3834 3553 
Q 3834 3144 3618 2883 
Q 3403 2622 2981 2516 
z
" transform="scale(0.015625)"/>
       </defs>
       <use xlink:href="#DejaVuSans-Bold-33"/>
       <use xlink:href="#DejaVuSans-Bold-30" x="69.580078"/>
       <use xlink:href="#DejaVuSans-Bold-30" x="139.160156"/>
       <use xlink:href="#DejaVuSans-Bold-30" x="208.740234"/>
      </g>
     </g>
    </g>
    <g id="xtick_11">
     <g id="line2d_17">
      <path d="M 453.037878 567 
L 453.037878 188.950909 
" clip-path="url(#p5412413e4b)" style="fill: none; stroke: #ffffff; stroke-linecap: round"/>
     </g>
     <g id="text_5">
      <!-- 3500 -->
      <g style="fill: #262626" transform="translate(437.730691 584.858281)scale(0.11 -0.11)">
       <use xlink:href="#DejaVuSans-Bold-33"/>
       <use xlink:href="#DejaVuSans-Bold-35" x="69.580078"/>
       <use xlink:href="#DejaVuSans-Bold-30" x="139.160156"/>
       <use xlink:href="#DejaVuSans-Bold-30" x="208.740234"/>
      </g>
     </g>
    </g>
    <g id="xtick_12">
     <g id="line2d_18">
      <path d="M 560.416121 567 
L 560.416121 188.950909 
" clip-path="url(#p5412413e4b)" style="fill: none; stroke: #ffffff; stroke-linecap: round"/>
     </g>
     <g id="text_6">
      <!-- 4000 -->
      <g style="fill: #262626" transform="translate(545.108934 584.858281)scale(0.11 -0.11)">
       <defs>
        <path id="DejaVuSans-Bold-34" d="M 2356 3675 
L 1038 1722 
L 2356 1722 
L 2356 3675 
z
M 2156 4666 
L 3494 4666 
L 3494 1722 
L 4159 1722 
L 4159 850 
L 3494 850 
L 3494 0 
L 2356 0 
L 2356 850 
L 288 850 
L 288 1881 
L 2156 4666 
z
" transform="scale(0.015625)"/>
       </defs>
       <use xlink:href="#DejaVuSans-Bold-34"/>
       <use xlink:href="#DejaVuSans-Bold-30" x="69.580078"/>
       <use xlink:href="#DejaVuSans-Bold-30" x="139.160156"/>
       <use xlink:href="#DejaVuSans-Bold-30" x="208.740234"/>
      </g>
     </g>
    </g>
    <g id="xtick_13">
     <g id="line2d_19">
      <path d="M 667.794364 567 
L 667.794364 188.950909 
" clip-path="url(#p5412413e4b)" style="fill: none; stroke: #ffffff; stroke-linecap: round"/>
     </g>
     <g id="text_7">
      <!-- 4500 -->
      <g style="fill: #262626" transform="translate(652.487176 584.858281)scale(0.11 -0.11)">
       <use xlink:href="#DejaVuSans-Bold-34"/>
       <use xlink:href="#DejaVuSans-Bold-35" x="69.580078"/>
       <use xlink:href="#DejaVuSans-Bold-30" x="139.160156"/>
       <use xlink:href="#DejaVuSans-Bold-30" x="208.740234"/>
      </g>
     </g>
    </g>
    <g id="xtick_14">
     <g id="line2d_20">
      <path d="M 775.172607 567 
L 775.172607 188.950909 
" clip-path="url(#p5412413e4b)" style="fill: none; stroke: #ffffff; stroke-linecap: round"/>
     </g>
     <g id="text_8">
      <!-- 5000 -->
      <g style="fill: #262626" transform="translate(759.865419 584.858281)scale(0.11 -0.11)">
       <use xlink:href="#DejaVuSans-Bold-35"/>
       <use xlink:href="#DejaVuSans-Bold-30" x="69.580078"/>
       <use xlink:href="#DejaVuSans-Bold-30" x="139.160156"/>
       <use xlink:href="#DejaVuSans-Bold-30" x="208.740234"/>
      </g>
     </g>
    </g>
    <g id="text_9">
     <!-- kcals per capita per day -->
     <g style="fill: #262626" transform="translate(370.476562 600.264062)scale(0.12 -0.12)">
      <defs>
       <path id="DejaVuSans-6b" d="M 581 4863 
L 1159 4863 
L 1159 1991 
L 2875 3500 
L 3609 3500 
L 1753 1863 
L 3688 0 
L 2938 0 
L 1159 1709 
L 1159 0 
L 581 0 
L 581 4863 
z
" transform="scale(0.015625)"/>
       <path id="DejaVuSans-63" d="M 3122 3366 
L 3122 2828 
Q 2878 2963 2633 3030 
Q 2388 3097 2138 3097 
Q 1578 3097 1268 2742 
Q 959 2388 959 1747 
Q 959 1106 1268 751 
Q 1578 397 2138 397 
Q 2388 397 2633 464 
Q 2878 531 3122 666 
L 3122 134 
Q 2881 22 2623 -34 
Q 2366 -91 2075 -91 
Q 1284 -91 818 406 
Q 353 903 353 1747 
Q 353 2603 823 3093 
Q 1294 3584 2113 3584 
Q 2378 3584 2631 3529 
Q 2884 3475 3122 3366 
z
" transform="scale(0.015625)"/>
       <path id="DejaVuSans-70" d="M 1159 525 
L 1159 -1331 
L 581 -1331 
L 581 3500 
L 1159 3500 
L 1159 2969 
Q 1341 3281 1617 3432 
Q 1894 3584 2278 3584 
Q 2916 3584 3314 3078 
Q 3713 2572 3713 1747 
Q 3713 922 3314 415 
Q 2916 -91 2278 -91 
Q 1894 -91 1617 61 
Q 1341 213 1159 525 
z
M 3116 1747 
Q 3116 2381 2855 2742 
Q 2594 3103 2138 3103 
Q 1681 3103 1420 2742 
Q 1159 2381 1159 1747 
Q 1159 1113 1420 752 
Q 1681 391 2138 391 
Q 2594 391 2855 752 
Q 3116 1113 3116 1747 
z
" transform="scale(0.015625)"/>
       <path id="DejaVuSans-69" d="M 603 3500 
L 1178 3500 
L 1178 0 
L 603 0 
L 603 3500 
z
M 603 4863 
L 1178 4863 
L 1178 4134 
L 603 4134 
L 603 4863 
z
" transform="scale(0.015625)"/>
       <path id="DejaVuSans-64" d="M 2906 2969 
L 2906 4863 
L 3481 4863 
L 3481 0 
L 2906 0 
L 2906 525 
Q 2725 213 2448 61 
Q 2172 -91 1784 -91 
Q 1150 -91 751 415 
Q 353 922 353 1747 
Q 353 2572 751 3078 
Q 1150 3584 1784 3584 
Q 2172 3584 2448 3432 
Q 2725 3281 2906 2969 
z
M 947 1747 
Q 947 1113 1208 752 
Q 1469 391 1925 391 
Q 2381 391 2643 752 
Q 2906 1113 2906 1747 
Q 2906 2381 2643 2742 
Q 2381 3103 1925 3103 
Q 1469 3103 1208 2742 
Q 947 2381 947 1747 
z
" transform="scale(0.015625)"/>
       <path id="DejaVuSans-79" d="M 2059 -325 
Q 1816 -950 1584 -1140 
Q 1353 -1331 966 -1331 
L 506 -1331 
L 506 -850 
L 844 -850 
Q 1081 -850 1212 -737 
Q 1344 -625 1503 -206 
L 1606 56 
L 191 3500 
L 800 3500 
L 1894 763 
L 2988 3500 
L 3597 3500 
L 2059 -325 
z
" transform="scale(0.015625)"/>
      </defs>
      <use xlink:href="#DejaVuSans-6b"/>
      <use xlink:href="#DejaVuSans-63" x="57.910156"/>
      <use xlink:href="#DejaVuSans-61" x="112.890625"/>
      <use xlink:href="#DejaVuSans-6c" x="174.169922"/>
      <use xlink:href="#DejaVuSans-73" x="201.953125"/>
      <use xlink:href="#DejaVuSans-20" x="254.052734"/>
      <use xlink:href="#DejaVuSans-70" x="285.839844"/>
      <use xlink:href="#DejaVuSans-65" x="349.316406"/>
      <use xlink:href="#DejaVuSans-72" x="410.839844"/>
      <use xlink:href="#DejaVuSans-20" x="451.953125"/>
      <use xlink:href="#DejaVuSans-63" x="483.740234"/>
      <use xlink:href="#DejaVuSans-61" x="538.720703"/>
      <use xlink:href="#DejaVuSans-70" x="600"/>
      <use xlink:href="#DejaVuSans-69" x="663.476562"/>
      <use xlink:href="#DejaVuSans-74" x="691.259766"/>
      <use xlink:href="#DejaVuSans-61" x="730.46875"/>
      <use xlink:href="#DejaVuSans-20" x="791.748047"/>
      <use xlink:href="#DejaVuSans-70" x="823.535156"/>
      <use xlink:href="#DejaVuSans-65" x="887.011719"/>
      <use xlink:href="#DejaVuSans-72" x="948.535156"/>
      <use xlink:href="#DejaVuSans-20" x="989.648438"/>
      <use xlink:href="#DejaVuSans-64" x="1021.435547"/>
      <use xlink:href="#DejaVuSans-61" x="1084.912109"/>
      <use xlink:href="#DejaVuSans-79" x="1146.191406"/>
     </g>
    </g>
   </g>
   <g id="matplotlib.axis_4">
    <g id="ytick_2">
     <g id="line2d_21">
      <path d="M 108 567 
L 777.6 567 
" clip-path="url(#p5412413e4b)" style="fill: none; stroke: #ffffff; stroke-linecap: round"/>
     </g>
     <g id="text_10">
      <!-- 0 -->
      <g style="fill: #262626" transform="translate(90.846406 571.179141)scale(0.11 -0.11)">
       <use xlink:href="#DejaVuSans-Bold-30"/>
      </g>
     </g>
    </g>
    <g id="ytick_3">
     <g id="line2d_22">
      <path d="M 108 494.990649 
L 777.6 494.990649 
" clip-path="url(#p5412413e4b)" style="fill: none; stroke: #ffffff; stroke-linecap: round"/>
     </g>
     <g id="text_11">
      <!-- 20 -->
      <g style="fill: #262626" transform="translate(83.192813 499.16979)scale(0.11 -0.11)">
       <use xlink:href="#DejaVuSans-Bold-32"/>
       <use xlink:href="#DejaVuSans-Bold-30" x="69.580078"/>
      </g>
     </g>
    </g>
    <g id="ytick_4">
     <g id="line2d_23">
      <path d="M 108 422.981299 
L 777.6 422.981299 
" clip-path="url(#p5412413e4b)" style="fill: none; stroke: #ffffff; stroke-linecap: round"/>
     </g>
     <g id="text_12">
      <!-- 40 -->
      <g style="fill: #262626" transform="translate(83.192813 427.160439)scale(0.11 -0.11)">
       <use xlink:href="#DejaVuSans-Bold-34"/>
       <use xlink:href="#DejaVuSans-Bold-30" x="69.580078"/>
      </g>
     </g>
    </g>
    <g id="ytick_5">
     <g id="line2d_24">
      <path d="M 108 350.971948 
L 777.6 350.971948 
" clip-path="url(#p5412413e4b)" style="fill: none; stroke: #ffffff; stroke-linecap: round"/>
     </g>
     <g id="text_13">
      <!-- 60 -->
      <g style="fill: #262626" transform="translate(83.192813 355.151089)scale(0.11 -0.11)">
       <defs>
        <path id="DejaVuSans-Bold-36" d="M 2316 2303 
Q 2000 2303 1842 2098 
Q 1684 1894 1684 1484 
Q 1684 1075 1842 870 
Q 2000 666 2316 666 
Q 2634 666 2792 870 
Q 2950 1075 2950 1484 
Q 2950 1894 2792 2098 
Q 2634 2303 2316 2303 
z
M 3803 4544 
L 3803 3681 
Q 3506 3822 3243 3889 
Q 2981 3956 2731 3956 
Q 2194 3956 1894 3657 
Q 1594 3359 1544 2772 
Q 1750 2925 1990 3001 
Q 2231 3078 2516 3078 
Q 3231 3078 3670 2659 
Q 4109 2241 4109 1563 
Q 4109 813 3618 361 
Q 3128 -91 2303 -91 
Q 1394 -91 895 523 
Q 397 1138 397 2266 
Q 397 3422 980 4083 
Q 1563 4744 2578 4744 
Q 2900 4744 3203 4694 
Q 3506 4644 3803 4544 
z
" transform="scale(0.015625)"/>
       </defs>
       <use xlink:href="#DejaVuSans-Bold-36"/>
       <use xlink:href="#DejaVuSans-Bold-30" x="69.580078"/>
      </g>
     </g>
    </g>
    <g id="ytick_6">
     <g id="line2d_25">
      <path d="M 108 278.962597 
L 777.6 278.962597 
" clip-path="url(#p5412413e4b)" style="fill: none; stroke: #ffffff; stroke-linecap: round"/>
     </g>
     <g id="text_14">
      <!-- 80 -->
      <g style="fill: #262626" transform="translate(83.192813 283.141738)scale(0.11 -0.11)">
       <defs>
        <path id="DejaVuSans-Bold-38" d="M 2228 2088 
Q 1891 2088 1709 1903 
Q 1528 1719 1528 1375 
Q 1528 1031 1709 848 
Q 1891 666 2228 666 
Q 2563 666 2741 848 
Q 2919 1031 2919 1375 
Q 2919 1722 2741 1905 
Q 2563 2088 2228 2088 
z
M 1350 2484 
Q 925 2613 709 2878 
Q 494 3144 494 3541 
Q 494 4131 934 4440 
Q 1375 4750 2228 4750 
Q 3075 4750 3515 4442 
Q 3956 4134 3956 3541 
Q 3956 3144 3739 2878 
Q 3522 2613 3097 2484 
Q 3572 2353 3814 2058 
Q 4056 1763 4056 1313 
Q 4056 619 3595 264 
Q 3134 -91 2228 -91 
Q 1319 -91 855 264 
Q 391 619 391 1313 
Q 391 1763 633 2058 
Q 875 2353 1350 2484 
z
M 1631 3419 
Q 1631 3141 1786 2991 
Q 1941 2841 2228 2841 
Q 2509 2841 2662 2991 
Q 2816 3141 2816 3419 
Q 2816 3697 2662 3845 
Q 2509 3994 2228 3994 
Q 1941 3994 1786 3844 
Q 1631 3694 1631 3419 
z
" transform="scale(0.015625)"/>
       </defs>
       <use xlink:href="#DejaVuSans-Bold-38"/>
       <use xlink:href="#DejaVuSans-Bold-30" x="69.580078"/>
      </g>
     </g>
    </g>
    <g id="ytick_7">
     <g id="line2d_26">
      <path d="M 108 206.953247 
L 777.6 206.953247 
" clip-path="url(#p5412413e4b)" style="fill: none; stroke: #ffffff; stroke-linecap: round"/>
     </g>
     <g id="text_15">
      <!-- 100 -->
      <g style="fill: #262626" transform="translate(75.539219 211.132387)scale(0.11 -0.11)">
       <defs>
        <path id="DejaVuSans-Bold-31" d="M 750 831 
L 1813 831 
L 1813 3847 
L 722 3622 
L 722 4441 
L 1806 4666 
L 2950 4666 
L 2950 831 
L 4013 831 
L 4013 0 
L 750 0 
L 750 831 
z
" transform="scale(0.015625)"/>
       </defs>
       <use xlink:href="#DejaVuSans-Bold-31"/>
       <use xlink:href="#DejaVuSans-Bold-30" x="69.580078"/>
       <use xlink:href="#DejaVuSans-Bold-30" x="139.160156"/>
      </g>
     </g>
    </g>
    <g id="text_16">
     <!-- Count -->
     <g style="fill: #262626" transform="translate(69.043594 395.79358)rotate(-90)scale(0.12 -0.12)">
      <use xlink:href="#DejaVuSans-43"/>
      <use xlink:href="#DejaVuSans-6f" x="69.824219"/>
      <use xlink:href="#DejaVuSans-75" x="131.005859"/>
      <use xlink:href="#DejaVuSans-6e" x="194.384766"/>
      <use xlink:href="#DejaVuSans-74" x="257.763672"/>
     </g>
    </g>
   </g>
   <g id="patch_9">
    <path d="M 138.436364 567 
L 164.902767 567 
L 164.902767 548.997662 
L 138.436364 548.997662 
z
" clip-path="url(#p5412413e4b)" style="fill: #4c72b0; fill-opacity: 0.75; stroke: #ffffff; stroke-linejoin: miter"/>
   </g>
   <g id="patch_10">
    <path d="M 164.902767 567 
L 191.36917 567 
L 191.36917 545.397195 
L 164.902767 545.397195 
z
" clip-path="url(#p5412413e4b)" style="fill: #4c72b0; fill-opacity: 0.75; stroke: #ffffff; stroke-linejoin: miter"/>
   </g>
   <g id="patch_11">
    <path d="M 191.36917 567 
L 217.835573 567 
L 217.835573 419.380831 
L 191.36917 419.380831 
z
" clip-path="url(#p5412413e4b)" style="fill: #4c72b0; fill-opacity: 0.75; stroke: #ffffff; stroke-linejoin: miter"/>
   </g>
   <g id="patch_12">
    <path d="M 217.835573 567 
L 244.301976 567 
L 244.301976 347.371481 
L 217.835573 347.371481 
z
" clip-path="url(#p5412413e4b)" style="fill: #4c72b0; fill-opacity: 0.75; stroke: #ffffff; stroke-linejoin: miter"/>
   </g>
   <g id="patch_13">
    <path d="M 244.301976 567 
L 270.768379 567 
L 270.768379 289.764 
L 244.301976 289.764 
z
" clip-path="url(#p5412413e4b)" style="fill: #4c72b0; fill-opacity: 0.75; stroke: #ffffff; stroke-linejoin: miter"/>
   </g>
   <g id="patch_14">
    <path d="M 270.768379 567 
L 297.234783 567 
L 297.234783 311.366805 
L 270.768379 311.366805 
z
" clip-path="url(#p5412413e4b)" style="fill: #4c72b0; fill-opacity: 0.75; stroke: #ffffff; stroke-linejoin: miter"/>
   </g>
   <g id="patch_15">
    <path d="M 297.234783 567 
L 323.701186 567 
L 323.701186 206.953247 
L 297.234783 206.953247 
z
" clip-path="url(#p5412413e4b)" style="fill: #4c72b0; fill-opacity: 0.75; stroke: #ffffff; stroke-linejoin: miter"/>
   </g>
   <g id="patch_16">
    <path d="M 323.701186 567 
L 350.167589 567 
L 350.167589 210.553714 
L 323.701186 210.553714 
z
" clip-path="url(#p5412413e4b)" style="fill: #4c72b0; fill-opacity: 0.75; stroke: #ffffff; stroke-linejoin: miter"/>
   </g>
   <g id="patch_17">
    <path d="M 350.167589 567 
L 376.633992 567 
L 376.633992 214.154182 
L 350.167589 214.154182 
z
" clip-path="url(#p5412413e4b)" style="fill: #4c72b0; fill-opacity: 0.75; stroke: #ffffff; stroke-linejoin: miter"/>
   </g>
   <g id="patch_18">
    <path d="M 376.633992 567 
L 403.100395 567 
L 403.100395 271.761662 
L 376.633992 271.761662 
z
" clip-path="url(#p5412413e4b)" style="fill: #4c72b0; fill-opacity: 0.75; stroke: #ffffff; stroke-linejoin: miter"/>
   </g>
   <g id="patch_19">
    <path d="M 403.100395 567 
L 429.566798 567 
L 429.566798 268.161195 
L 403.100395 268.161195 
z
" clip-path="url(#p5412413e4b)" style="fill: #4c72b0; fill-opacity: 0.75; stroke: #ffffff; stroke-linejoin: miter"/>
   </g>
   <g id="patch_20">
    <path d="M 429.566798 567 
L 456.033202 567 
L 456.033202 379.775688 
L 429.566798 379.775688 
z
" clip-path="url(#p5412413e4b)" style="fill: #4c72b0; fill-opacity: 0.75; stroke: #ffffff; stroke-linejoin: miter"/>
   </g>
   <g id="patch_21">
    <path d="M 456.033202 567 
L 482.499605 567 
L 482.499605 430.182234 
L 456.033202 430.182234 
z
" clip-path="url(#p5412413e4b)" style="fill: #4c72b0; fill-opacity: 0.75; stroke: #ffffff; stroke-linejoin: miter"/>
   </g>
   <g id="patch_22">
    <path d="M 482.499605 567 
L 508.966008 567 
L 508.966008 430.182234 
L 482.499605 430.182234 
z
" clip-path="url(#p5412413e4b)" style="fill: #4c72b0; fill-opacity: 0.75; stroke: #ffffff; stroke-linejoin: miter"/>
   </g>
   <g id="patch_23">
    <path d="M 508.966008 567 
L 535.432411 567 
L 535.432411 505.792052 
L 508.966008 505.792052 
z
" clip-path="url(#p5412413e4b)" style="fill: #4c72b0; fill-opacity: 0.75; stroke: #ffffff; stroke-linejoin: miter"/>
   </g>
   <g id="patch_24">
    <path d="M 535.432411 567 
L 561.898814 567 
L 561.898814 516.593455 
L 535.432411 516.593455 
z
" clip-path="url(#p5412413e4b)" style="fill: #4c72b0; fill-opacity: 0.75; stroke: #ffffff; stroke-linejoin: miter"/>
   </g>
   <g id="patch_25">
    <path d="M 561.898814 567 
L 588.365217 567 
L 588.365217 520.193922 
L 561.898814 520.193922 
z
" clip-path="url(#p5412413e4b)" style="fill: #4c72b0; fill-opacity: 0.75; stroke: #ffffff; stroke-linejoin: miter"/>
   </g>
   <g id="patch_26">
    <path d="M 588.365217 567 
L 614.831621 567 
L 614.831621 538.19626 
L 588.365217 538.19626 
z
" clip-path="url(#p5412413e4b)" style="fill: #4c72b0; fill-opacity: 0.75; stroke: #ffffff; stroke-linejoin: miter"/>
   </g>
   <g id="patch_27">
    <path d="M 614.831621 567 
L 641.298024 567 
L 641.298024 541.796727 
L 614.831621 541.796727 
z
" clip-path="url(#p5412413e4b)" style="fill: #4c72b0; fill-opacity: 0.75; stroke: #ffffff; stroke-linejoin: miter"/>
   </g>
   <g id="patch_28">
    <path d="M 641.298024 567 
L 667.764427 567 
L 667.764427 559.799065 
L 641.298024 559.799065 
z
" clip-path="url(#p5412413e4b)" style="fill: #4c72b0; fill-opacity: 0.75; stroke: #ffffff; stroke-linejoin: miter"/>
   </g>
   <g id="patch_29">
    <path d="M 667.764427 567 
L 694.23083 567 
L 694.23083 559.799065 
L 667.764427 559.799065 
z
" clip-path="url(#p5412413e4b)" style="fill: #4c72b0; fill-opacity: 0.75; stroke: #ffffff; stroke-linejoin: miter"/>
   </g>
   <g id="patch_30">
    <path d="M 694.23083 567 
L 720.697233 567 
L 720.697233 567 
L 694.23083 567 
z
" clip-path="url(#p5412413e4b)" style="fill: #4c72b0; fill-opacity: 0.75; stroke: #ffffff; stroke-linejoin: miter"/>
   </g>
   <g id="patch_31">
    <path d="M 720.697233 567 
L 747.163636 567 
L 747.163636 559.799065 
L 720.697233 559.799065 
z
" clip-path="url(#p5412413e4b)" style="fill: #4c72b0; fill-opacity: 0.75; stroke: #ffffff; stroke-linejoin: miter"/>
   </g>
   <g id="patch_32">
    <path d="M 108 567 
L 108 188.950909 
" style="fill: none; stroke: #ffffff; stroke-width: 1.25; stroke-linejoin: miter; stroke-linecap: square"/>
   </g>
   <g id="patch_33">
    <path d="M 777.6 567 
L 777.6 188.950909 
" style="fill: none; stroke: #ffffff; stroke-width: 1.25; stroke-linejoin: miter; stroke-linecap: square"/>
   </g>
   <g id="patch_34">
    <path d="M 108 567 
L 777.6 567 
" style="fill: none; stroke: #ffffff; stroke-width: 1.25; stroke-linejoin: miter; stroke-linecap: square"/>
   </g>
   <g id="patch_35">
    <path d="M 108 188.950909 
L 777.6 188.950909 
" style="fill: none; stroke: #ffffff; stroke-width: 1.25; stroke-linejoin: miter; stroke-linecap: square"/>
   </g>
  </g>
 </g>
 <defs>
  <clipPath id="pbe393f3a3d">
   <rect x="108" y="77.76" width="669.6" height="66.714545"/>
  </clipPath>
  <clipPath id="p5412413e4b">
   <rect x="108" y="188.950909" width="669.6" height="378.049091"/>
  </clipPath>
 </defs>
</svg>
