<?xml version="1.0" encoding="UTF-8" standalone="no"?>
<!DOCTYPE svg PUBLIC "-//W3C//DTD SVG 1.1//EN"
 "http://www.w3.org/Graphics/SVG/1.1/DTD/svg11.dtd">
<!-- Generated by graphviz version 2.40.1 (20161225.0304)
 -->
<!-- Title: ModelOverview Pages: 1 -->
<svg width="1223pt" height="548pt"
 viewBox="0.00 0.00 1222.51 548.00" xmlns="http://www.w3.org/2000/svg" xmlns:xlink="http://www.w3.org/1999/xlink">
<g id="graph0" class="graph" transform="scale(1 1) rotate(0) translate(4 544)">
<title>ModelOverview</title>
<polygon fill="#ffffff" stroke="transparent" points="-4,4 -4,-544 1218.5143,-544 1218.5143,4 -4,4"/>
<!-- norm_consumption -->
<g id="node1" class="node">
<title>norm_consumption</title>
<ellipse fill="#55aa55" stroke="#55aa55" cx="999.5149" cy="-450" rx="85.2014" ry="18"/>
<text text-anchor="middle" x="999.5149" y="-445.8" font-family="Times,serif" font-size="14.00" fill="#000000">Food Consumption</text>
</g>
<!-- model -->
<g id="node14" class="node">
<title>model</title>
<polygon fill="#669999" stroke="#000000" points="742.8111,-396 630.2187,-396 630.2187,-360 742.8111,-360 742.8111,-396"/>
<text text-anchor="middle" x="686.5149" y="-373.8" font-family="Times,serif" font-size="14.00" fill="#000000">Integrated Model</text>
</g>
<!-- norm_consumption&#45;&gt;model -->
<g id="edge11" class="edge">
<title>norm_consumption&#45;&gt;model</title>
<path fill="none" stroke="#000000" d="M941.7411,-436.7102C888.2513,-424.4058 808.7547,-406.1191 752.7252,-393.2305"/>
<polygon fill="#000000" stroke="#000000" points="753.4276,-389.8007 742.8974,-390.9698 751.8583,-396.6226 753.4276,-389.8007"/>
</g>
<!-- Waste -->
<g id="node2" class="node">
<title>Waste</title>
<ellipse fill="#88cc88" stroke="#88cc88" cx="958.5149" cy="-522" rx="35.3295" ry="18"/>
<text text-anchor="middle" x="958.5149" y="-517.8" font-family="Times,serif" font-size="14.00" fill="#000000">Waste</text>
</g>
<!-- Waste&#45;&gt;norm_consumption -->
<g id="edge1" class="edge">
<title>Waste&#45;&gt;norm_consumption</title>
<path fill="none" stroke="#000000" d="M968.4398,-504.5708C973.1679,-496.2679 978.9293,-486.1502 984.2011,-476.8925"/>
<polygon fill="#000000" stroke="#000000" points="987.3462,-478.4424 989.2532,-468.0206 981.2633,-474.9785 987.3462,-478.4424"/>
</g>
<!-- Feed -->
<g id="node3" class="node">
<title>Feed</title>
<ellipse fill="#88cc88" stroke="#88cc88" cx="1041.5149" cy="-522" rx="29.6147" ry="18"/>
<text text-anchor="middle" x="1041.5149" y="-517.8" font-family="Times,serif" font-size="14.00" fill="#000000">Feed</text>
</g>
<!-- Feed&#45;&gt;norm_consumption -->
<g id="edge2" class="edge">
<title>Feed&#45;&gt;norm_consumption</title>
<path fill="none" stroke="#000000" d="M1031.5615,-504.937C1026.6349,-496.4914 1020.5743,-486.1019 1015.0546,-476.6396"/>
<polygon fill="#000000" stroke="#000000" points="1018.0449,-474.8195 1009.9829,-467.9453 1011.9985,-478.3466 1018.0449,-474.8195"/>
</g>
<!-- Biofuel -->
<g id="node4" class="node">
<title>Biofuel</title>
<ellipse fill="#88cc88" stroke="#88cc88" cx="1129.5149" cy="-522" rx="40.005" ry="18"/>
<text text-anchor="middle" x="1129.5149" y="-517.8" font-family="Times,serif" font-size="14.00" fill="#000000">Biofuel</text>
</g>
<!-- Biofuel&#45;&gt;norm_consumption -->
<g id="edge3" class="edge">
<title>Biofuel&#45;&gt;norm_consumption</title>
<path fill="none" stroke="#000000" d="M1104.141,-507.9468C1085.6496,-497.7054 1060.2396,-483.6322 1039.0916,-471.9194"/>
<polygon fill="#000000" stroke="#000000" points="1040.7655,-468.8456 1030.3218,-467.0623 1037.3739,-474.9691 1040.7655,-468.8456"/>
</g>
<!-- std_resources -->
<g id="node5" class="node">
<title>std_resources</title>
<ellipse fill="#55aa55" stroke="#55aa55" cx="354.5149" cy="-450" rx="109.9556" ry="18"/>
<text text-anchor="middle" x="354.5149" y="-445.8" font-family="Times,serif" font-size="14.00" fill="#000000">Standard Food Resources</text>
</g>
<!-- std_resources&#45;&gt;model -->
<g id="edge12" class="edge">
<title>std_resources&#45;&gt;model</title>
<path fill="none" stroke="#000000" d="M420.9021,-435.6028C478.8599,-423.0336 562.5258,-404.8892 620.4022,-392.3377"/>
<polygon fill="#000000" stroke="#000000" points="621.147,-395.7576 630.178,-390.2176 619.6633,-388.9166 621.147,-395.7576"/>
</g>
<!-- stored_food -->
<g id="node6" class="node">
<title>stored_food</title>
<ellipse fill="#88cc88" stroke="#88cc88" cx="58.5149" cy="-522" rx="58.5298" ry="18"/>
<text text-anchor="middle" x="58.5149" y="-517.8" font-family="Times,serif" font-size="14.00" fill="#000000">Stored Food</text>
</g>
<!-- stored_food&#45;&gt;std_resources -->
<g id="edge4" class="edge">
<title>stored_food&#45;&gt;std_resources</title>
<path fill="none" stroke="#000000" d="M102.433,-509.9931C110.1157,-507.9522 118.0404,-505.8848 125.5149,-504 177.0664,-491.0003 235.3931,-477.2606 280.2799,-466.8938"/>
<polygon fill="#000000" stroke="#000000" points="281.2667,-470.2582 290.2249,-464.6013 279.6942,-463.4371 281.2667,-470.2582"/>
</g>
<!-- outdoor_crop -->
<g id="node7" class="node">
<title>outdoor_crop</title>
<ellipse fill="#88cc88" stroke="#88cc88" cx="199.5149" cy="-522" rx="64.8928" ry="18"/>
<text text-anchor="middle" x="199.5149" y="-517.8" font-family="Times,serif" font-size="14.00" fill="#000000">Outdoor Crop</text>
</g>
<!-- outdoor_crop&#45;&gt;std_resources -->
<g id="edge5" class="edge">
<title>outdoor_crop&#45;&gt;std_resources</title>
<path fill="none" stroke="#000000" d="M233.1476,-506.3771C255.2349,-496.1171 284.4103,-482.5647 308.6202,-471.3188"/>
<polygon fill="#000000" stroke="#000000" points="310.3759,-474.3625 317.9707,-466.9754 307.4268,-468.014 310.3759,-474.3625"/>
</g>
<!-- meat -->
<g id="node8" class="node">
<title>meat</title>
<ellipse fill="#88cc88" stroke="#88cc88" cx="354.5149" cy="-522" rx="71.7699" ry="18"/>
<text text-anchor="middle" x="354.5149" y="-517.8" font-family="Times,serif" font-size="14.00" fill="#000000">Meat and Dairy</text>
</g>
<!-- meat&#45;&gt;std_resources -->
<g id="edge6" class="edge">
<title>meat&#45;&gt;std_resources</title>
<path fill="none" stroke="#000000" d="M354.5149,-503.8314C354.5149,-496.131 354.5149,-486.9743 354.5149,-478.4166"/>
<polygon fill="#000000" stroke="#000000" points="358.015,-478.4132 354.5149,-468.4133 351.015,-478.4133 358.015,-478.4132"/>
</g>
<!-- Fish -->
<g id="node9" class="node">
<title>Fish</title>
<ellipse fill="#88cc88" stroke="#88cc88" cx="471.5149" cy="-522" rx="27.8461" ry="18"/>
<text text-anchor="middle" x="471.5149" y="-517.8" font-family="Times,serif" font-size="14.00" fill="#000000">Fish</text>
</g>
<!-- Fish&#45;&gt;std_resources -->
<g id="edge7" class="edge">
<title>Fish&#45;&gt;std_resources</title>
<path fill="none" stroke="#000000" d="M451.4019,-509.6228C435.0842,-499.5811 411.6323,-485.1492 391.889,-472.9994"/>
<polygon fill="#000000" stroke="#000000" points="393.4685,-469.8619 383.1176,-467.6017 389.7998,-475.8235 393.4685,-469.8619"/>
</g>
<!-- res_resources -->
<g id="node10" class="node">
<title>res_resources</title>
<ellipse fill="#55aa55" stroke="#55aa55" cx="686.5149" cy="-450" rx="109.9692" ry="18"/>
<text text-anchor="middle" x="686.5149" y="-445.8" font-family="Times,serif" font-size="14.00" fill="#000000">Resilient Food Resources</text>
</g>
<!-- res_resources&#45;&gt;model -->
<g id="edge13" class="edge">
<title>res_resources&#45;&gt;model</title>
<path fill="none" stroke="#000000" d="M686.5149,-431.8314C686.5149,-424.131 686.5149,-414.9743 686.5149,-406.4166"/>
<polygon fill="#000000" stroke="#000000" points="690.015,-406.4132 686.5149,-396.4133 683.015,-406.4133 690.015,-406.4132"/>
</g>
<!-- Seaweed -->
<g id="node11" class="node">
<title>Seaweed</title>
<ellipse fill="#88cc88" stroke="#88cc88" cx="562.5149" cy="-522" rx="45.2035" ry="18"/>
<text text-anchor="middle" x="562.5149" y="-517.8" font-family="Times,serif" font-size="14.00" fill="#000000">Seaweed</text>
</g>
<!-- Seaweed&#45;&gt;res_resources -->
<g id="edge8" class="edge">
<title>Seaweed&#45;&gt;res_resources</title>
<path fill="none" stroke="#000000" d="M588.2078,-507.0816C605.3549,-497.1252 628.2226,-483.8471 647.5877,-472.6029"/>
<polygon fill="#000000" stroke="#000000" points="649.5976,-475.4831 656.488,-467.4349 646.0827,-469.4296 649.5976,-475.4831"/>
</g>
<!-- Greenhouses -->
<g id="node12" class="node">
<title>Greenhouses</title>
<ellipse fill="#88cc88" stroke="#88cc88" cx="686.5149" cy="-522" rx="60.8159" ry="18"/>
<text text-anchor="middle" x="686.5149" y="-517.8" font-family="Times,serif" font-size="14.00" fill="#000000">Greenhouses</text>
</g>
<!-- Greenhouses&#45;&gt;res_resources -->
<g id="edge9" class="edge">
<title>Greenhouses&#45;&gt;res_resources</title>
<path fill="none" stroke="#000000" d="M686.5149,-503.8314C686.5149,-496.131 686.5149,-486.9743 686.5149,-478.4166"/>
<polygon fill="#000000" stroke="#000000" points="690.015,-478.4132 686.5149,-468.4133 683.015,-478.4133 690.015,-478.4132"/>
</g>
<!-- industrial_food -->
<g id="node13" class="node">
<title>industrial_food</title>
<ellipse fill="#88cc88" stroke="#88cc88" cx="835.5149" cy="-522" rx="70.126" ry="18"/>
<text text-anchor="middle" x="835.5149" y="-517.8" font-family="Times,serif" font-size="14.00" fill="#000000">Industrial Food</text>
</g>
<!-- industrial_food&#45;&gt;res_resources -->
<g id="edge10" class="edge">
<title>industrial_food&#45;&gt;res_resources</title>
<path fill="none" stroke="#000000" d="M802.4469,-506.0209C781.4233,-495.8618 753.9452,-482.5838 731.0176,-471.5047"/>
<polygon fill="#000000" stroke="#000000" points="732.3555,-468.264 721.8287,-467.0644 729.3098,-474.5667 732.3555,-468.264"/>
</g>
<!-- nw -->
<g id="node15" class="node">
<title>nw</title>
<polygon fill="#d46a6a" stroke="#d46a6a" points="711.3289,-298.5442 711.3289,-313.4558 666.3323,-324 602.6975,-324 557.7009,-313.4558 557.7009,-298.5442 602.6975,-288 666.3323,-288 711.3289,-298.5442"/>
<text text-anchor="middle" x="634.5149" y="-301.8" font-family="Times,serif" font-size="14.00" fill="#000000">Nuclear Winter</text>
</g>
<!-- model&#45;&gt;nw -->
<g id="edge15" class="edge">
<title>model&#45;&gt;nw</title>
<path fill="none" stroke="#000000" d="M673.3931,-359.8314C667.465,-351.6232 660.3419,-341.7606 653.8215,-332.7323"/>
<polygon fill="#000000" stroke="#000000" points="656.5057,-330.4708 647.8133,-324.4133 650.8309,-334.5693 656.5057,-330.4708"/>
</g>
<!-- Baseline -->
<g id="node16" class="node">
<title>Baseline</title>
<polygon fill="#d49a6a" stroke="#d49a6a" points="938.3895,-226.5442 938.3895,-241.4558 910.3452,-252 870.6846,-252 842.6402,-241.4558 842.6402,-226.5442 870.6846,-216 910.3452,-216 938.3895,-226.5442"/>
<text text-anchor="middle" x="890.5149" y="-229.8" font-family="Times,serif" font-size="14.00" fill="#000000">Baseline</text>
</g>
<!-- model&#45;&gt;Baseline -->
<g id="edge14" class="edge">
<title>model&#45;&gt;Baseline</title>
<path fill="none" stroke="#000000" d="M712.3516,-359.7623C749.5088,-333.5337 817.995,-285.1905 858.3724,-256.6888"/>
<polygon fill="#000000" stroke="#000000" points="860.6318,-259.3781 866.783,-250.7519 856.5949,-253.6594 860.6318,-259.3781"/>
</g>
<!-- nw_trade -->
<g id="node17" class="node">
<title>nw_trade</title>
<polygon fill="#ffaaaa" stroke="#ffaaaa" points="439.0277,-226.5442 439.0277,-241.4558 384.2492,-252 306.7806,-252 252.002,-241.4558 252.002,-226.5442 306.7806,-216 384.2492,-216 439.0277,-226.5442"/>
<text text-anchor="middle" x="345.5149" y="-229.8" font-family="Times,serif" font-size="14.00" fill="#000000">With Trade, Global</text>
</g>
<!-- nw&#45;&gt;nw_trade -->
<g id="edge16" class="edge">
<title>nw&#45;&gt;nw_trade</title>
<path fill="none" stroke="#000000" d="M581.8439,-292.8778C534.4293,-281.0652 464.4916,-263.6413 412.9942,-250.8114"/>
<polygon fill="#000000" stroke="#000000" points="413.8276,-247.4122 403.278,-248.3908 412.1353,-254.2045 413.8276,-247.4122"/>
</g>
<!-- nw_no_trade -->
<g id="node18" class="node">
<title>nw_no_trade</title>
<polygon fill="#ffaaaa" stroke="#ffaaaa" points="740.5136,-226.5442 740.5136,-241.4558 678.421,-252 590.6087,-252 528.5161,-241.4558 528.5161,-226.5442 590.6087,-216 678.421,-216 740.5136,-226.5442"/>
<text text-anchor="middle" x="634.5149" y="-229.8" font-family="Times,serif" font-size="14.00" fill="#000000">No Trade, By Country</text>
</g>
<!-- nw&#45;&gt;nw_no_trade -->
<g id="edge17" class="edge">
<title>nw&#45;&gt;nw_no_trade</title>
<path fill="none" stroke="#000000" d="M634.5149,-287.8314C634.5149,-280.131 634.5149,-270.9743 634.5149,-262.4166"/>
<polygon fill="#000000" stroke="#000000" points="638.015,-262.4132 634.5149,-252.4133 631.015,-262.4133 638.015,-262.4132"/>
</g>
<!-- Baseline_trade -->
<g id="node23" class="node">
<title>Baseline_trade</title>
<polygon fill="#ffd1aa" stroke="#ffd1aa" points="984.0277,-154.5442 984.0277,-169.4558 929.2492,-180 851.7806,-180 797.002,-169.4558 797.002,-154.5442 851.7806,-144 929.2492,-144 984.0277,-154.5442"/>
<text text-anchor="middle" x="890.5149" y="-157.8" font-family="Times,serif" font-size="14.00" fill="#000000">With Trade, Global</text>
</g>
<!-- Baseline&#45;&gt;Baseline_trade -->
<g id="edge22" class="edge">
<title>Baseline&#45;&gt;Baseline_trade</title>
<path fill="none" stroke="#000000" d="M890.5149,-215.8314C890.5149,-208.131 890.5149,-198.9743 890.5149,-190.4166"/>
<polygon fill="#000000" stroke="#000000" points="894.015,-190.4132 890.5149,-180.4133 887.015,-190.4133 894.015,-190.4132"/>
</g>
<!-- Baseline_no_trade -->
<g id="node24" class="node">
<title>Baseline_no_trade</title>
<polygon fill="#ffd1aa" stroke="#ffd1aa" points="1214.5136,-154.5442 1214.5136,-169.4558 1152.421,-180 1064.6087,-180 1002.5161,-169.4558 1002.5161,-154.5442 1064.6087,-144 1152.421,-144 1214.5136,-154.5442"/>
<text text-anchor="middle" x="1108.5149" y="-157.8" font-family="Times,serif" font-size="14.00" fill="#000000">No Trade, By Country</text>
</g>
<!-- Baseline&#45;&gt;Baseline_no_trade -->
<g id="edge23" class="edge">
<title>Baseline&#45;&gt;Baseline_no_trade</title>
<path fill="none" stroke="#000000" d="M927.0032,-221.9488C959.9665,-211.0619 1009.1221,-194.827 1047.9687,-181.9969"/>
<polygon fill="#000000" stroke="#000000" points="1049.2089,-185.2733 1057.6067,-178.8137 1047.0135,-178.6265 1049.2089,-185.2733"/>
</g>
<!-- nw_trade_no_res_food -->
<g id="node19" class="node">
<title>nw_trade_no_res_food</title>
<polygon fill="#ffaaaa" stroke="#ffaaaa" points="254.2045,-154.5442 254.2045,-169.4558 202.2513,-180 128.7784,-180 76.8253,-169.4558 76.8253,-154.5442 128.7784,-144 202.2513,-144 254.2045,-154.5442"/>
<text text-anchor="middle" x="165.5149" y="-157.8" font-family="Times,serif" font-size="14.00" fill="#000000">No Resilient Food</text>
</g>
<!-- nw_trade&#45;&gt;nw_trade_no_res_food -->
<g id="edge18" class="edge">
<title>nw_trade&#45;&gt;nw_trade_no_res_food</title>
<path fill="none" stroke="#000000" d="M302.4004,-216.7542C276.9269,-206.5648 244.5009,-193.5944 217.6031,-182.8353"/>
<polygon fill="#000000" stroke="#000000" points="218.5513,-179.445 207.9667,-178.9807 215.9516,-185.9444 218.5513,-179.445"/>
</g>
<!-- nw_trade_res_food -->
<g id="node20" class="node">
<title>nw_trade_res_food</title>
<polygon fill="#ffaaaa" stroke="#ffaaaa" points="418.9346,-154.5442 418.9346,-169.4558 375.9263,-180 315.1034,-180 272.0951,-169.4558 272.0951,-154.5442 315.1034,-144 375.9263,-144 418.9346,-154.5442"/>
<text text-anchor="middle" x="345.5149" y="-157.8" font-family="Times,serif" font-size="14.00" fill="#000000">Resilient Food</text>
</g>
<!-- nw_trade&#45;&gt;nw_trade_res_food -->
<g id="edge19" class="edge">
<title>nw_trade&#45;&gt;nw_trade_res_food</title>
<path fill="none" stroke="#000000" d="M345.5149,-215.8314C345.5149,-208.131 345.5149,-198.9743 345.5149,-190.4166"/>
<polygon fill="#000000" stroke="#000000" points="349.015,-190.4132 345.5149,-180.4133 342.015,-190.4133 349.015,-190.4132"/>
</g>
<!-- nw_no_trade_no_res_food -->
<g id="node21" class="node">
<title>nw_no_trade_no_res_food</title>
<polygon fill="#ffaaaa" stroke="#ffaaaa" points="614.2045,-154.5442 614.2045,-169.4558 562.2513,-180 488.7784,-180 436.8253,-169.4558 436.8253,-154.5442 488.7784,-144 562.2513,-144 614.2045,-154.5442"/>
<text text-anchor="middle" x="525.5149" y="-157.8" font-family="Times,serif" font-size="14.00" fill="#000000">No Resilient Food</text>
</g>
<!-- nw_no_trade&#45;&gt;nw_no_trade_no_res_food -->
<g id="edge20" class="edge">
<title>nw_no_trade&#45;&gt;nw_no_trade_no_res_food</title>
<path fill="none" stroke="#000000" d="M607.0096,-215.8314C593.1969,-206.7074 576.2892,-195.539 561.4619,-185.7449"/>
<polygon fill="#000000" stroke="#000000" points="563.2845,-182.7541 553.0114,-180.1628 559.4263,-188.5949 563.2845,-182.7541"/>
</g>
<!-- nw_no_trade_res_food -->
<g id="node22" class="node">
<title>nw_no_trade_res_food</title>
<polygon fill="#ffaaaa" stroke="#ffaaaa" points="778.9346,-154.5442 778.9346,-169.4558 735.9263,-180 675.1034,-180 632.0951,-169.4558 632.0951,-154.5442 675.1034,-144 735.9263,-144 778.9346,-154.5442"/>
<text text-anchor="middle" x="705.5149" y="-157.8" font-family="Times,serif" font-size="14.00" fill="#000000">Resilient Food</text>
</g>
<!-- nw_no_trade&#45;&gt;nw_no_trade_res_food -->
<g id="edge21" class="edge">
<title>nw_no_trade&#45;&gt;nw_no_trade_res_food</title>
<path fill="none" stroke="#000000" d="M652.4312,-215.8314C660.8591,-207.2848 671.0559,-196.9443 680.2509,-187.6198"/>
<polygon fill="#000000" stroke="#000000" points="682.828,-189.9912 687.3573,-180.4133 677.8437,-185.0761 682.828,-189.9912"/>
</g>
<!-- opt -->
<g id="node25" class="node">
<title>opt</title>
<polygon fill="#669999" stroke="#000000" points="660.3944,-108 570.6354,-108 570.6354,-72 660.3944,-72 660.3944,-108"/>
<text text-anchor="middle" x="615.5149" y="-85.8" font-family="Times,serif" font-size="14.00" fill="#000000">Optimization</text>
</g>
<!-- nw_trade_no_res_food&#45;&gt;opt -->
<g id="edge26" class="edge">
<title>nw_trade_no_res_food&#45;&gt;opt</title>
<path fill="none" stroke="#000000" d="M230.8339,-149.7262C241.7375,-147.7568 252.9389,-145.7821 263.5149,-144 368.1863,-126.3625 490.7816,-108.0945 560.1812,-97.9745"/>
<polygon fill="#000000" stroke="#000000" points="561.0472,-101.3855 570.4388,-96.4816 560.039,-94.4584 561.0472,-101.3855"/>
</g>
<!-- nw_trade_res_food&#45;&gt;opt -->
<g id="edge27" class="edge">
<title>nw_trade_res_food&#45;&gt;opt</title>
<path fill="none" stroke="#000000" d="M395.3517,-148.7102C442.2513,-136.2036 512.3284,-117.5164 560.7669,-104.5995"/>
<polygon fill="#000000" stroke="#000000" points="561.6949,-107.9744 570.4554,-102.0159 559.8912,-101.2107 561.6949,-107.9744"/>
</g>
<!-- nw_no_trade_no_res_food&#45;&gt;opt -->
<g id="edge28" class="edge">
<title>nw_no_trade_no_res_food&#45;&gt;opt</title>
<path fill="none" stroke="#000000" d="M548.2257,-143.8314C559.3109,-134.9632 572.8103,-124.1637 584.8001,-114.5718"/>
<polygon fill="#000000" stroke="#000000" points="587.1891,-117.1429 592.8113,-108.1628 582.8162,-111.6768 587.1891,-117.1429"/>
</g>
<!-- nw_no_trade_res_food&#45;&gt;opt -->
<g id="edge29" class="edge">
<title>nw_no_trade_res_food&#45;&gt;opt</title>
<path fill="none" stroke="#000000" d="M682.8041,-143.8314C671.7189,-134.9632 658.2195,-124.1637 646.2297,-114.5718"/>
<polygon fill="#000000" stroke="#000000" points="648.2136,-111.6768 638.2184,-108.1628 643.8407,-117.1429 648.2136,-111.6768"/>
</g>
<!-- Baseline_trade&#45;&gt;opt -->
<g id="edge24" class="edge">
<title>Baseline_trade&#45;&gt;opt</title>
<path fill="none" stroke="#000000" d="M834.2009,-147.256C786.2289,-134.696 717.7159,-116.7581 670.2127,-104.3209"/>
<polygon fill="#000000" stroke="#000000" points="670.9704,-100.9013 660.4099,-101.7543 669.1974,-107.6731 670.9704,-100.9013"/>
</g>
<!-- Baseline_no_trade&#45;&gt;opt -->
<g id="edge25" class="edge">
<title>Baseline_no_trade&#45;&gt;opt</title>
<path fill="none" stroke="#000000" d="M1030.9025,-149.7073C1018.4054,-147.7696 1005.6062,-145.8099 993.5149,-144 878.7715,-126.8249 744.244,-107.8944 670.6145,-97.6363"/>
<polygon fill="#000000" stroke="#000000" points="671.0247,-94.1597 660.6376,-96.2474 670.0595,-101.0928 671.0247,-94.1597"/>
</g>
<!-- analysis -->
<g id="node26" class="node">
<title>analysis</title>
<polygon fill="#669999" stroke="#000000" points="648.0065,-36 583.0233,-36 583.0233,0 648.0065,0 648.0065,-36"/>
<text text-anchor="middle" x="615.5149" y="-13.8" font-family="Times,serif" font-size="14.00" fill="#000000">Analysis</text>
</g>
<!-- opt&#45;&gt;analysis -->
<g id="edge30" class="edge">
<title>opt&#45;&gt;analysis</title>
<path fill="none" stroke="#000000" d="M615.5149,-71.8314C615.5149,-64.131 615.5149,-54.9743 615.5149,-46.4166"/>
<polygon fill="#000000" stroke="#000000" points="619.015,-46.4132 615.5149,-36.4133 612.015,-46.4133 619.015,-46.4132"/>
</g>
</g>
</svg>
