<?xml version="1.0" encoding="UTF-8" standalone="no"?>
<!DOCTYPE svg PUBLIC "-//W3C//DTD SVG 1.1//EN"
 "http://www.w3.org/Graphics/SVG/1.1/DTD/svg11.dtd">
<!-- Generated by graphviz version 2.40.1 (20161225.0304)
 -->
<!-- Title: ModelOverview Pages: 1 -->
<svg width="2710pt" height="620pt"
 viewBox="0.00 0.00 2710.45 620.20" xmlns="http://www.w3.org/2000/svg" xmlns:xlink="http://www.w3.org/1999/xlink">
<g id="graph0" class="graph" transform="scale(1 1) rotate(0) translate(4 616.2)">
<title>ModelOverview</title>
<polygon fill="#ffffff" stroke="transparent" points="-4,4 -4,-616.2 2706.4484,-616.2 2706.4484,4 -4,4"/>
<!-- model_res_food -->
<g id="node1" class="node">
<title>model_res_food</title>
<ellipse fill="#3a913f" stroke="#3a913f" cx="149.1627" cy="-488.6" rx="149.3255" ry="18"/>
<text text-anchor="middle" x="149.1627" y="-484.4" font-family="Times,serif" font-size="14.00" fill="#000000">run_model_with_resilient_foods.py</text>
</g>
<!-- run_scenario -->
<g id="node5" class="node">
<title>run_scenario</title>
<ellipse fill="#3a913f" stroke="#3a913f" cx="810.1627" cy="-383" rx="72.9581" ry="18"/>
<text text-anchor="middle" x="810.1627" y="-378.8" font-family="Times,serif" font-size="14.00" fill="#000000">run_scenario.py</text>
</g>
<!-- model_res_food&#45;&gt;run_scenario -->
<g id="edge1" class="edge">
<title>model_res_food&#45;&gt;run_scenario</title>
<path fill="none" stroke="#000000" d="M226.6721,-473.2004C303.5136,-458.2268 424.6863,-435.403 530.1627,-419 598.7779,-408.3294 677.2078,-398.4432 733.5718,-391.7415"/>
<polygon fill="#000000" stroke="#000000" points="734.3125,-395.1784 743.8321,-390.5277 733.4901,-388.2268 734.3125,-395.1784"/>
</g>
<!-- model_base -->
<g id="node2" class="node">
<title>model_base</title>
<ellipse fill="#3a913f" stroke="#3a913f" cx="418.1627" cy="-488.6" rx="101.3318" ry="18"/>
<text text-anchor="middle" x="418.1627" y="-484.4" font-family="Times,serif" font-size="14.00" fill="#000000">run_model_baseline.py</text>
</g>
<!-- model_base&#45;&gt;run_scenario -->
<g id="edge2" class="edge">
<title>model_base&#45;&gt;run_scenario</title>
<path fill="none" stroke="#000000" d="M466.3701,-472.6751C512.3421,-457.7802 583.6688,-435.4266 646.3793,-419 678.0079,-410.7151 713.4062,-402.771 743.1797,-396.4632"/>
<polygon fill="#000000" stroke="#000000" points="743.9817,-399.8712 753.0477,-394.3886 742.5415,-393.0209 743.9817,-399.8712"/>
<text text-anchor="middle" x="685.0544" y="-440" font-family="Times,serif" font-size="14.00" fill="#000000">call for</text>
<text text-anchor="middle" x="685.0544" y="-423.2" font-family="Times,serif" font-size="14.00" fill="#000000">each scenario</text>
</g>
<!-- model_no_res_food -->
<g id="node3" class="node">
<title>model_no_res_food</title>
<ellipse fill="#3a913f" stroke="#3a913f" cx="679.1627" cy="-488.6" rx="141.8051" ry="18"/>
<text text-anchor="middle" x="679.1627" y="-484.4" font-family="Times,serif" font-size="14.00" fill="#000000">run_model_no_resilient_foods.py</text>
</g>
<!-- model_no_res_food&#45;&gt;run_scenario -->
<g id="edge3" class="edge">
<title>model_no_res_food&#45;&gt;run_scenario</title>
<path fill="none" stroke="#000000" d="M701.385,-470.6864C723.1949,-453.1054 756.5919,-426.1838 780.6262,-406.8096"/>
<polygon fill="#000000" stroke="#000000" points="783.1137,-409.3 788.7026,-400.2991 778.7205,-403.8502 783.1137,-409.3"/>
</g>
<!-- figure_3abcd -->
<g id="node4" class="node">
<title>figure_3abcd</title>
<ellipse fill="#3a913f" stroke="#3a913f" cx="941.1627" cy="-488.6" rx="101.8515" ry="18"/>
<text text-anchor="middle" x="941.1627" y="-484.4" font-family="Times,serif" font-size="14.00" fill="#000000">create_figure_3abcd.py</text>
</g>
<!-- figure_3abcd&#45;&gt;run_scenario -->
<g id="edge4" class="edge">
<title>figure_3abcd&#45;&gt;run_scenario</title>
<path fill="none" stroke="#000000" d="M919.2362,-470.9249C897.3795,-453.306 863.6758,-426.1373 839.5198,-406.665"/>
<polygon fill="#000000" stroke="#000000" points="841.7068,-403.9323 831.7247,-400.3813 837.3136,-409.3822 841.7068,-403.9323"/>
</g>
<!-- parameters -->
<g id="node16" class="node">
<title>parameters</title>
<ellipse fill="#3a913f" stroke="#3a913f" cx="810.1627" cy="-310" rx="65.428" ry="18"/>
<text text-anchor="middle" x="810.1627" y="-305.8" font-family="Times,serif" font-size="14.00" fill="#000000">parameters.py</text>
</g>
<!-- run_scenario&#45;&gt;parameters -->
<g id="edge15" class="edge">
<title>run_scenario&#45;&gt;parameters</title>
<path fill="none" stroke="#000000" d="M804.247,-364.9551C803.4485,-356.8828 803.2232,-347.1764 803.571,-338.1817"/>
<polygon fill="#000000" stroke="#000000" points="807.0707,-338.3007 804.2425,-328.0904 800.0861,-337.8359 807.0707,-338.3007"/>
</g>
<!-- create_figure_1ab -->
<g id="node6" class="node">
<title>create_figure_1ab</title>
<ellipse fill="#3a913f" stroke="#3a913f" cx="201.1627" cy="-594.2" rx="92.6215" ry="18"/>
<text text-anchor="middle" x="201.1627" y="-590" font-family="Times,serif" font-size="14.00" fill="#000000">create_figure_1ab.py</text>
</g>
<!-- run_model_no_trade -->
<g id="node13" class="node">
<title>run_model_no_trade</title>
<ellipse fill="#3a913f" stroke="#3a913f" cx="1164.1627" cy="-488.6" rx="103.6233" ry="18"/>
<text text-anchor="middle" x="1164.1627" y="-484.4" font-family="Times,serif" font-size="14.00" fill="#000000">run_model_no_trade.py</text>
</g>
<!-- create_figure_1ab&#45;&gt;run_model_no_trade -->
<g id="edge5" class="edge">
<title>create_figure_1ab&#45;&gt;run_model_no_trade</title>
<path fill="none" stroke="#000000" d="M269.7243,-581.9719C280.8961,-580.0165 292.3482,-578.0343 303.1627,-576.2 443.8958,-552.3295 478.1542,-539.0638 620.1627,-524.6 811.3402,-505.1282 860.9657,-525.8797 1052.1627,-506.6 1061.7885,-505.6294 1071.8443,-504.3684 1081.8106,-502.9643"/>
<polygon fill="#000000" stroke="#000000" points="1082.3376,-506.4246 1091.7277,-501.518 1081.3273,-499.4979 1082.3376,-506.4246"/>
</g>
<!-- create_figure_2abcde -->
<g id="node7" class="node">
<title>create_figure_2abcde</title>
<ellipse fill="#3a913f" stroke="#3a913f" cx="421.1627" cy="-594.2" rx="108.7923" ry="18"/>
<text text-anchor="middle" x="421.1627" y="-590" font-family="Times,serif" font-size="14.00" fill="#000000">create_figure_2abcdet.py</text>
</g>
<!-- create_figure_2abcde&#45;&gt;run_model_no_trade -->
<g id="edge6" class="edge">
<title>create_figure_2abcde&#45;&gt;run_model_no_trade</title>
<path fill="none" stroke="#000000" d="M492.972,-580.612C576.751,-565.1651 719.5692,-540.0906 843.1627,-524.6 935.6717,-513.0054 959.6301,-518.0047 1052.1627,-506.6 1061.2058,-505.4854 1070.6384,-504.1858 1080.0243,-502.8044"/>
<polygon fill="#000000" stroke="#000000" points="1080.8019,-506.2269 1090.17,-501.2783 1079.7606,-499.3048 1080.8019,-506.2269"/>
</g>
<!-- reproduce_xia_et_al_USA -->
<g id="node8" class="node">
<title>reproduce_xia_et_al_USA</title>
<ellipse fill="#3a913f" stroke="#3a913f" cx="674.1627" cy="-594.2" rx="126.1517" ry="18"/>
<text text-anchor="middle" x="674.1627" y="-590" font-family="Times,serif" font-size="14.00" fill="#000000">reproduce_xia_et_al_USA.py</text>
</g>
<!-- reproduce_xia_et_al_USA&#45;&gt;run_model_no_trade -->
<g id="edge7" class="edge">
<title>reproduce_xia_et_al_USA&#45;&gt;run_model_no_trade</title>
<path fill="none" stroke="#000000" d="M743.8474,-579.1822C835.2399,-559.4862 994.9816,-525.0603 1089.0097,-504.7962"/>
<polygon fill="#000000" stroke="#000000" points="1089.9816,-508.1672 1099.0198,-502.639 1088.5069,-501.3243 1089.9816,-508.1672"/>
</g>
<!-- run_USA_with_improved_numbers -->
<g id="node9" class="node">
<title>run_USA_with_improved_numbers</title>
<ellipse fill="#3a913f" stroke="#3a913f" cx="980.1627" cy="-594.2" rx="162.0747" ry="18"/>
<text text-anchor="middle" x="980.1627" y="-590" font-family="Times,serif" font-size="14.00" fill="#000000">run_USA_with_improved_numbers.py</text>
</g>
<!-- run_USA_with_improved_numbers&#45;&gt;run_model_no_trade -->
<g id="edge8" class="edge">
<title>run_USA_with_improved_numbers&#45;&gt;run_model_no_trade</title>
<path fill="none" stroke="#000000" d="M1010.9601,-576.5249C1042.3271,-558.523 1091.0653,-530.5516 1125.1217,-511.0061"/>
<polygon fill="#000000" stroke="#000000" points="1126.9461,-513.9946 1133.8771,-505.9813 1123.4617,-507.9234 1126.9461,-513.9946"/>
<text text-anchor="middle" x="1148.945" y="-545.6" font-family="Times,serif" font-size="14.00" fill="#000000">call with</text>
<text text-anchor="middle" x="1148.945" y="-528.8" font-family="Times,serif" font-size="14.00" fill="#000000">scenarios defined</text>
</g>
<!-- run_model_no_trade_with_resilient_foods -->
<g id="node10" class="node">
<title>run_model_no_trade_with_resilient_foods</title>
<ellipse fill="#3a913f" stroke="#3a913f" cx="1348.1627" cy="-594.2" rx="187.5541" ry="18"/>
<text text-anchor="middle" x="1348.1627" y="-590" font-family="Times,serif" font-size="14.00" fill="#000000">run_model_no_trade_with_resilient_foods.py</text>
</g>
<!-- run_model_no_trade_with_resilient_foods&#45;&gt;run_model_no_trade -->
<g id="edge9" class="edge">
<title>run_model_no_trade_with_resilient_foods&#45;&gt;run_model_no_trade</title>
<path fill="none" stroke="#000000" d="M1316.9496,-576.2864C1285.5133,-558.2447 1236.9379,-530.3666 1203.0232,-510.9026"/>
<polygon fill="#000000" stroke="#000000" points="1204.7205,-507.8412 1194.3051,-505.8991 1201.2361,-513.9124 1204.7205,-507.8412"/>
</g>
<!-- run_model_no_trade_no_resilient_foods -->
<g id="node11" class="node">
<title>run_model_no_trade_no_resilient_foods</title>
<ellipse fill="#3a913f" stroke="#3a913f" cx="1734.1627" cy="-594.2" rx="180.0338" ry="18"/>
<text text-anchor="middle" x="1734.1627" y="-590" font-family="Times,serif" font-size="14.00" fill="#000000">run_model_no_trade_no_resilient_foods.py</text>
</g>
<!-- run_model_no_trade_no_resilient_foods&#45;&gt;run_model_no_trade -->
<g id="edge10" class="edge">
<title>run_model_no_trade_no_resilient_foods&#45;&gt;run_model_no_trade</title>
<path fill="none" stroke="#000000" d="M1648.5196,-578.3335C1539.3798,-558.1139 1352.0958,-523.4171 1245.2062,-503.6144"/>
<polygon fill="#000000" stroke="#000000" points="1245.5886,-500.1257 1235.1184,-501.7455 1244.3134,-507.0086 1245.5886,-500.1257"/>
</g>
<!-- run_model_no_trade_baseline -->
<g id="node12" class="node">
<title>run_model_no_trade_baseline</title>
<ellipse fill="#3a913f" stroke="#3a913f" cx="2072.1627" cy="-594.2" rx="140.0602" ry="18"/>
<text text-anchor="middle" x="2072.1627" y="-590" font-family="Times,serif" font-size="14.00" fill="#000000">run_model_no_trade_baseline.py</text>
</g>
<!-- run_model_no_trade_baseline&#45;&gt;run_model_no_trade -->
<g id="edge11" class="edge">
<title>run_model_no_trade_baseline&#45;&gt;run_model_no_trade</title>
<path fill="none" stroke="#000000" d="M1970.3798,-581.831C1954.5738,-579.9313 1938.4297,-578.0032 1923.1627,-576.2 1685.3348,-548.1103 1405.4583,-516.0714 1261.1296,-499.6244"/>
<polygon fill="#000000" stroke="#000000" points="1261.3066,-496.122 1250.9747,-498.4675 1260.5142,-503.077 1261.3066,-496.122"/>
</g>
<!-- run_model_no_trade&#45;&gt;run_scenario -->
<g id="edge12" class="edge">
<title>run_model_no_trade&#45;&gt;run_scenario</title>
<path fill="none" stroke="#000000" d="M1111.9288,-473.0184C1046.2118,-453.4146 933.8075,-419.8839 866.3012,-399.7464"/>
<polygon fill="#000000" stroke="#000000" points="867.2612,-396.3804 856.6779,-396.8757 865.2601,-403.0883 867.2612,-396.3804"/>
<text text-anchor="middle" x="1078.0544" y="-440" font-family="Times,serif" font-size="14.00" fill="#000000">call for</text>
<text text-anchor="middle" x="1078.0544" y="-423.2" font-family="Times,serif" font-size="14.00" fill="#000000">each scenario</text>
</g>
<!-- data_no_food_trade_computer_readable_combined -->
<g id="node14" class="node">
<title>data_no_food_trade_computer_readable_combined</title>
<ellipse fill="#3a913f" stroke="#3a913f" cx="2466.1627" cy="-594.2" rx="236.0716" ry="18"/>
<text text-anchor="middle" x="2466.1627" y="-590" font-family="Times,serif" font-size="14.00" fill="#000000">data/no_food_trade/computer_readable_combined.csv.csv</text>
</g>
<!-- scenario -->
<g id="node15" class="node">
<title>scenario</title>
<ellipse fill="#3a913f" stroke="#3a913f" cx="2096.1627" cy="-488.6" rx="55.0585" ry="18"/>
<text text-anchor="middle" x="2096.1627" y="-484.4" font-family="Times,serif" font-size="14.00" fill="#000000">scenario.py</text>
</g>
<!-- data_no_food_trade_computer_readable_combined&#45;&gt;scenario -->
<g id="edge13" class="edge">
<title>data_no_food_trade_computer_readable_combined&#45;&gt;scenario</title>
<path fill="none" stroke="#000000" d="M2405.0647,-576.7623C2333.2192,-556.2572 2215.2329,-522.5833 2147.774,-503.3302"/>
<polygon fill="#000000" stroke="#000000" points="2148.3742,-499.8618 2137.7976,-500.4828 2146.453,-506.593 2148.3742,-499.8618"/>
<text text-anchor="middle" x="2350.9376" y="-537.2" font-family="Times,serif" font-size="14.00" fill="#000000">loads</text>
</g>
<!-- scenario&#45;&gt;run_scenario -->
<g id="edge14" class="edge">
<title>scenario&#45;&gt;run_scenario</title>
<path fill="none" stroke="#000000" d="M2042.5421,-484.1969C1841.1481,-467.6595 1129.2307,-409.2003 889.5713,-389.5206"/>
<polygon fill="#000000" stroke="#000000" points="889.7924,-386.0271 879.5395,-388.6969 889.2194,-393.0036 889.7924,-386.0271"/>
<text text-anchor="middle" x="1658.9376" y="-431.6" font-family="Times,serif" font-size="14.00" fill="#000000">loads</text>
</g>
<!-- parameters&#45;&gt;run_scenario -->
<g id="edge24" class="edge">
<title>parameters&#45;&gt;run_scenario</title>
<path fill="none" stroke="#000000" d="M816.0829,-328.0904C816.8792,-336.1687 817.1024,-345.8769 816.7524,-354.8688"/>
<polygon fill="#000000" stroke="#000000" points="813.2531,-354.7439 816.0784,-364.9551 820.2375,-355.2107 813.2531,-354.7439"/>
</g>
<!-- optimizer -->
<g id="node17" class="node">
<title>optimizer</title>
<ellipse fill="#3a913f" stroke="#3a913f" cx="810.1627" cy="-237" rx="60.2322" ry="18"/>
<text text-anchor="middle" x="810.1627" y="-232.8" font-family="Times,serif" font-size="14.00" fill="#000000">optimizer.py</text>
</g>
<!-- parameters&#45;&gt;optimizer -->
<g id="edge16" class="edge">
<title>parameters&#45;&gt;optimizer</title>
<path fill="none" stroke="#000000" d="M804.247,-291.9551C803.4485,-283.8828 803.2232,-274.1764 803.571,-265.1817"/>
<polygon fill="#000000" stroke="#000000" points="807.0707,-265.3007 804.2425,-255.0904 800.0861,-264.8359 807.0707,-265.3007"/>
</g>
<!-- optimizer&#45;&gt;parameters -->
<g id="edge23" class="edge">
<title>optimizer&#45;&gt;parameters</title>
<path fill="none" stroke="#000000" d="M816.0829,-255.0904C816.8792,-263.1687 817.1024,-272.8769 816.7524,-281.8688"/>
<polygon fill="#000000" stroke="#000000" points="813.2531,-281.7439 816.0784,-291.9551 820.2375,-282.2107 813.2531,-281.7439"/>
</g>
<!-- extract_results -->
<g id="node18" class="node">
<title>extract_results</title>
<ellipse fill="#3a913f" stroke="#3a913f" cx="810.1627" cy="-164" rx="79.3309" ry="18"/>
<text text-anchor="middle" x="810.1627" y="-159.8" font-family="Times,serif" font-size="14.00" fill="#000000">extract_results.py</text>
</g>
<!-- optimizer&#45;&gt;extract_results -->
<g id="edge17" class="edge">
<title>optimizer&#45;&gt;extract_results</title>
<path fill="none" stroke="#000000" d="M804.247,-218.9551C803.4485,-210.8828 803.2232,-201.1764 803.571,-192.1817"/>
<polygon fill="#000000" stroke="#000000" points="807.0707,-192.3007 804.2425,-182.0904 800.0861,-191.8359 807.0707,-192.3007"/>
</g>
<!-- extract_results&#45;&gt;optimizer -->
<g id="edge22" class="edge">
<title>extract_results&#45;&gt;optimizer</title>
<path fill="none" stroke="#000000" d="M816.0829,-182.0904C816.8792,-190.1687 817.1024,-199.8769 816.7524,-208.8688"/>
<polygon fill="#000000" stroke="#000000" points="813.2531,-208.7439 816.0784,-218.9551 820.2375,-209.2107 813.2531,-208.7439"/>
</g>
<!-- interpret_results -->
<g id="node19" class="node">
<title>interpret_results</title>
<ellipse fill="#3a913f" stroke="#3a913f" cx="810.1627" cy="-91" rx="85.7115" ry="18"/>
<text text-anchor="middle" x="810.1627" y="-86.8" font-family="Times,serif" font-size="14.00" fill="#000000">interpret_results.py</text>
</g>
<!-- extract_results&#45;&gt;interpret_results -->
<g id="edge18" class="edge">
<title>extract_results&#45;&gt;interpret_results</title>
<path fill="none" stroke="#000000" d="M804.247,-145.9551C803.4485,-137.8828 803.2232,-128.1764 803.571,-119.1817"/>
<polygon fill="#000000" stroke="#000000" points="807.0707,-119.3007 804.2425,-109.0904 800.0861,-118.8359 807.0707,-119.3007"/>
</g>
<!-- interpret_results&#45;&gt;extract_results -->
<g id="edge21" class="edge">
<title>interpret_results&#45;&gt;extract_results</title>
<path fill="none" stroke="#000000" d="M816.0829,-109.0904C816.8792,-117.1687 817.1024,-126.8769 816.7524,-135.8688"/>
<polygon fill="#000000" stroke="#000000" points="813.2531,-135.7439 816.0784,-145.9551 820.2375,-136.2107 813.2531,-135.7439"/>
</g>
<!-- validate_results -->
<g id="node20" class="node">
<title>validate_results</title>
<ellipse fill="#3a913f" stroke="#3a913f" cx="810.1627" cy="-18" rx="83.926" ry="18"/>
<text text-anchor="middle" x="810.1627" y="-13.8" font-family="Times,serif" font-size="14.00" fill="#000000">validate_results.py</text>
</g>
<!-- interpret_results&#45;&gt;validate_results -->
<g id="edge19" class="edge">
<title>interpret_results&#45;&gt;validate_results</title>
<path fill="none" stroke="#000000" d="M804.247,-72.9551C803.4485,-64.8828 803.2232,-55.1764 803.571,-46.1817"/>
<polygon fill="#000000" stroke="#000000" points="807.0707,-46.3007 804.2425,-36.0904 800.0861,-45.8359 807.0707,-46.3007"/>
</g>
<!-- validate_results&#45;&gt;interpret_results -->
<g id="edge20" class="edge">
<title>validate_results&#45;&gt;interpret_results</title>
<path fill="none" stroke="#000000" d="M816.0829,-36.0904C816.8792,-44.1687 817.1024,-53.8769 816.7524,-62.8688"/>
<polygon fill="#000000" stroke="#000000" points="813.2531,-62.7439 816.0784,-72.9551 820.2375,-63.2107 813.2531,-62.7439"/>
</g>
</g>
</svg>
