<?xml version="1.0" encoding="utf-8" standalone="no"?>
<!DOCTYPE svg PUBLIC "-//W3C//DTD SVG 1.1//EN"
  "http://www.w3.org/Graphics/SVG/1.1/DTD/svg11.dtd">
<svg xmlns:xlink="http://www.w3.org/1999/xlink" width="864pt" height="648pt" viewBox="0 0 864 648" xmlns="http://www.w3.org/2000/svg" version="1.1">
 <metadata>
  <rdf:RDF xmlns:dc="http://purl.org/dc/elements/1.1/" xmlns:cc="http://creativecommons.org/ns#" xmlns:rdf="http://www.w3.org/1999/02/22-rdf-syntax-ns#">
   <cc:Work>
    <dc:type rdf:resource="http://purl.org/dc/dcmitype/StillImage"/>
    <dc:date>2022-02-28T20:55:17.225604</dc:date>
    <dc:format>image/svg+xml</dc:format>
    <dc:creator>
     <cc:Agent>
      <dc:title>Matplotlib v3.5.1, https://matplotlib.org/</dc:title>
     </cc:Agent>
    </dc:creator>
   </cc:Work>
  </rdf:RDF>
 </metadata>
 <defs>
  <style type="text/css">*{stroke-linejoin: round; stroke-linecap: butt}</style>
 </defs>
 <g id="figure_1">
  <g id="patch_1">
   <path d="M 0 648 
L 864 648 
L 864 0 
L 0 0 
z
" style="fill: #ffffff"/>
  </g>
  <g id="axes_1">
   <g id="patch_2">
    <path d="M 108 576.72 
L 777.6 576.72 
L 777.6 77.76 
L 108 77.76 
z
" style="fill: #ffffff"/>
   </g>
   <g id="matplotlib.axis_1">
    <g id="xtick_1">
     <g id="line2d_1">
      <defs>
       <path id="m4533a957e3" d="M 0 0 
L 0 3.5 
" style="stroke: #000000; stroke-width: 0.8"/>
      </defs>
      <g>
       <use xlink:href="#m4533a957e3" x="138.436364" y="576.72" style="stroke: #000000; stroke-width: 0.8"/>
      </g>
     </g>
     <g id="text_1">
      <!-- 0 -->
      <g transform="translate(135.255114 591.318438)scale(0.1 -0.1)">
       <defs>
        <path id="DejaVuSans-30" d="M 2034 4250 
Q 1547 4250 1301 3770 
Q 1056 3291 1056 2328 
Q 1056 1369 1301 889 
Q 1547 409 2034 409 
Q 2525 409 2770 889 
Q 3016 1369 3016 2328 
Q 3016 3291 2770 3770 
Q 2525 4250 2034 4250 
z
M 2034 4750 
Q 2819 4750 3233 4129 
Q 3647 3509 3647 2328 
Q 3647 1150 3233 529 
Q 2819 -91 2034 -91 
Q 1250 -91 836 529 
Q 422 1150 422 2328 
Q 422 3509 836 4129 
Q 1250 4750 2034 4750 
z
" transform="scale(0.015625)"/>
       </defs>
       <use xlink:href="#DejaVuSans-30"/>
      </g>
     </g>
    </g>
    <g id="xtick_2">
     <g id="line2d_2">
      <g>
       <use xlink:href="#m4533a957e3" x="261.41157" y="576.72" style="stroke: #000000; stroke-width: 0.8"/>
      </g>
     </g>
     <g id="text_2">
      <!-- 20 -->
      <g transform="translate(255.04907 591.318438)scale(0.1 -0.1)">
       <defs>
        <path id="DejaVuSans-32" d="M 1228 531 
L 3431 531 
L 3431 0 
L 469 0 
L 469 531 
Q 828 903 1448 1529 
Q 2069 2156 2228 2338 
Q 2531 2678 2651 2914 
Q 2772 3150 2772 3378 
Q 2772 3750 2511 3984 
Q 2250 4219 1831 4219 
Q 1534 4219 1204 4116 
Q 875 4013 500 3803 
L 500 4441 
Q 881 4594 1212 4672 
Q 1544 4750 1819 4750 
Q 2544 4750 2975 4387 
Q 3406 4025 3406 3419 
Q 3406 3131 3298 2873 
Q 3191 2616 2906 2266 
Q 2828 2175 2409 1742 
Q 1991 1309 1228 531 
z
" transform="scale(0.015625)"/>
       </defs>
       <use xlink:href="#DejaVuSans-32"/>
       <use xlink:href="#DejaVuSans-30" x="63.623047"/>
      </g>
     </g>
    </g>
    <g id="xtick_3">
     <g id="line2d_3">
      <g>
       <use xlink:href="#m4533a957e3" x="384.386777" y="576.72" style="stroke: #000000; stroke-width: 0.8"/>
      </g>
     </g>
     <g id="text_3">
      <!-- 40 -->
      <g transform="translate(378.024277 591.318438)scale(0.1 -0.1)">
       <defs>
        <path id="DejaVuSans-34" d="M 2419 4116 
L 825 1625 
L 2419 1625 
L 2419 4116 
z
M 2253 4666 
L 3047 4666 
L 3047 1625 
L 3713 1625 
L 3713 1100 
L 3047 1100 
L 3047 0 
L 2419 0 
L 2419 1100 
L 313 1100 
L 313 1709 
L 2253 4666 
z
" transform="scale(0.015625)"/>
       </defs>
       <use xlink:href="#DejaVuSans-34"/>
       <use xlink:href="#DejaVuSans-30" x="63.623047"/>
      </g>
     </g>
    </g>
    <g id="xtick_4">
     <g id="line2d_4">
      <g>
       <use xlink:href="#m4533a957e3" x="507.361983" y="576.72" style="stroke: #000000; stroke-width: 0.8"/>
      </g>
     </g>
     <g id="text_4">
      <!-- 60 -->
      <g transform="translate(500.999483 591.318438)scale(0.1 -0.1)">
       <defs>
        <path id="DejaVuSans-36" d="M 2113 2584 
Q 1688 2584 1439 2293 
Q 1191 2003 1191 1497 
Q 1191 994 1439 701 
Q 1688 409 2113 409 
Q 2538 409 2786 701 
Q 3034 994 3034 1497 
Q 3034 2003 2786 2293 
Q 2538 2584 2113 2584 
z
M 3366 4563 
L 3366 3988 
Q 3128 4100 2886 4159 
Q 2644 4219 2406 4219 
Q 1781 4219 1451 3797 
Q 1122 3375 1075 2522 
Q 1259 2794 1537 2939 
Q 1816 3084 2150 3084 
Q 2853 3084 3261 2657 
Q 3669 2231 3669 1497 
Q 3669 778 3244 343 
Q 2819 -91 2113 -91 
Q 1303 -91 875 529 
Q 447 1150 447 2328 
Q 447 3434 972 4092 
Q 1497 4750 2381 4750 
Q 2619 4750 2861 4703 
Q 3103 4656 3366 4563 
z
" transform="scale(0.015625)"/>
       </defs>
       <use xlink:href="#DejaVuSans-36"/>
       <use xlink:href="#DejaVuSans-30" x="63.623047"/>
      </g>
     </g>
    </g>
    <g id="xtick_5">
     <g id="line2d_5">
      <g>
       <use xlink:href="#m4533a957e3" x="630.33719" y="576.72" style="stroke: #000000; stroke-width: 0.8"/>
      </g>
     </g>
     <g id="text_5">
      <!-- 80 -->
      <g transform="translate(623.97469 591.318438)scale(0.1 -0.1)">
       <defs>
        <path id="DejaVuSans-38" d="M 2034 2216 
Q 1584 2216 1326 1975 
Q 1069 1734 1069 1313 
Q 1069 891 1326 650 
Q 1584 409 2034 409 
Q 2484 409 2743 651 
Q 3003 894 3003 1313 
Q 3003 1734 2745 1975 
Q 2488 2216 2034 2216 
z
M 1403 2484 
Q 997 2584 770 2862 
Q 544 3141 544 3541 
Q 544 4100 942 4425 
Q 1341 4750 2034 4750 
Q 2731 4750 3128 4425 
Q 3525 4100 3525 3541 
Q 3525 3141 3298 2862 
Q 3072 2584 2669 2484 
Q 3125 2378 3379 2068 
Q 3634 1759 3634 1313 
Q 3634 634 3220 271 
Q 2806 -91 2034 -91 
Q 1263 -91 848 271 
Q 434 634 434 1313 
Q 434 1759 690 2068 
Q 947 2378 1403 2484 
z
M 1172 3481 
Q 1172 3119 1398 2916 
Q 1625 2713 2034 2713 
Q 2441 2713 2670 2916 
Q 2900 3119 2900 3481 
Q 2900 3844 2670 4047 
Q 2441 4250 2034 4250 
Q 1625 4250 1398 4047 
Q 1172 3844 1172 3481 
z
" transform="scale(0.015625)"/>
       </defs>
       <use xlink:href="#DejaVuSans-38"/>
       <use xlink:href="#DejaVuSans-30" x="63.623047"/>
      </g>
     </g>
    </g>
    <g id="xtick_6">
     <g id="line2d_6">
      <g>
       <use xlink:href="#m4533a957e3" x="753.312397" y="576.72" style="stroke: #000000; stroke-width: 0.8"/>
      </g>
     </g>
     <g id="text_6">
      <!-- 100 -->
      <g transform="translate(743.768647 591.318438)scale(0.1 -0.1)">
       <defs>
        <path id="DejaVuSans-31" d="M 794 531 
L 1825 531 
L 1825 4091 
L 703 3866 
L 703 4441 
L 1819 4666 
L 2450 4666 
L 2450 531 
L 3481 531 
L 3481 0 
L 794 0 
L 794 531 
z
" transform="scale(0.015625)"/>
       </defs>
       <use xlink:href="#DejaVuSans-31"/>
       <use xlink:href="#DejaVuSans-30" x="63.623047"/>
       <use xlink:href="#DejaVuSans-30" x="127.246094"/>
      </g>
     </g>
    </g>
   </g>
   <g id="matplotlib.axis_2">
    <g id="ytick_1">
     <g id="line2d_7">
      <defs>
       <path id="m2b93af219b" d="M 0 0 
L -3.5 0 
" style="stroke: #000000; stroke-width: 0.8"/>
      </defs>
      <g>
       <use xlink:href="#m2b93af219b" x="108" y="565.355724" style="stroke: #000000; stroke-width: 0.8"/>
      </g>
     </g>
     <g id="text_7">
      <!-- 0 -->
      <g transform="translate(94.6375 569.154943)scale(0.1 -0.1)">
       <use xlink:href="#DejaVuSans-30"/>
      </g>
     </g>
    </g>
    <g id="ytick_2">
     <g id="line2d_8">
      <g>
       <use xlink:href="#m2b93af219b" x="108" y="507.737153" style="stroke: #000000; stroke-width: 0.8"/>
      </g>
     </g>
     <g id="text_8">
      <!-- 500 -->
      <g transform="translate(81.9125 511.536372)scale(0.1 -0.1)">
       <defs>
        <path id="DejaVuSans-35" d="M 691 4666 
L 3169 4666 
L 3169 4134 
L 1269 4134 
L 1269 2991 
Q 1406 3038 1543 3061 
Q 1681 3084 1819 3084 
Q 2600 3084 3056 2656 
Q 3513 2228 3513 1497 
Q 3513 744 3044 326 
Q 2575 -91 1722 -91 
Q 1428 -91 1123 -41 
Q 819 9 494 109 
L 494 744 
Q 775 591 1075 516 
Q 1375 441 1709 441 
Q 2250 441 2565 725 
Q 2881 1009 2881 1497 
Q 2881 1984 2565 2268 
Q 2250 2553 1709 2553 
Q 1456 2553 1204 2497 
Q 953 2441 691 2322 
L 691 4666 
z
" transform="scale(0.015625)"/>
       </defs>
       <use xlink:href="#DejaVuSans-35"/>
       <use xlink:href="#DejaVuSans-30" x="63.623047"/>
       <use xlink:href="#DejaVuSans-30" x="127.246094"/>
      </g>
     </g>
    </g>
    <g id="ytick_3">
     <g id="line2d_9">
      <g>
       <use xlink:href="#m2b93af219b" x="108" y="450.118583" style="stroke: #000000; stroke-width: 0.8"/>
      </g>
     </g>
     <g id="text_9">
      <!-- 1000 -->
      <g transform="translate(75.55 453.917801)scale(0.1 -0.1)">
       <use xlink:href="#DejaVuSans-31"/>
       <use xlink:href="#DejaVuSans-30" x="63.623047"/>
       <use xlink:href="#DejaVuSans-30" x="127.246094"/>
       <use xlink:href="#DejaVuSans-30" x="190.869141"/>
      </g>
     </g>
    </g>
    <g id="ytick_4">
     <g id="line2d_10">
      <g>
       <use xlink:href="#m2b93af219b" x="108" y="392.500012" style="stroke: #000000; stroke-width: 0.8"/>
      </g>
     </g>
     <g id="text_10">
      <!-- 1500 -->
      <g transform="translate(75.55 396.299231)scale(0.1 -0.1)">
       <use xlink:href="#DejaVuSans-31"/>
       <use xlink:href="#DejaVuSans-35" x="63.623047"/>
       <use xlink:href="#DejaVuSans-30" x="127.246094"/>
       <use xlink:href="#DejaVuSans-30" x="190.869141"/>
      </g>
     </g>
    </g>
    <g id="ytick_5">
     <g id="line2d_11">
      <g>
       <use xlink:href="#m2b93af219b" x="108" y="334.881441" style="stroke: #000000; stroke-width: 0.8"/>
      </g>
     </g>
     <g id="text_11">
      <!-- 2000 -->
      <g transform="translate(75.55 338.68066)scale(0.1 -0.1)">
       <use xlink:href="#DejaVuSans-32"/>
       <use xlink:href="#DejaVuSans-30" x="63.623047"/>
       <use xlink:href="#DejaVuSans-30" x="127.246094"/>
       <use xlink:href="#DejaVuSans-30" x="190.869141"/>
      </g>
     </g>
    </g>
    <g id="ytick_6">
     <g id="line2d_12">
      <g>
       <use xlink:href="#m2b93af219b" x="108" y="277.26287" style="stroke: #000000; stroke-width: 0.8"/>
      </g>
     </g>
     <g id="text_12">
      <!-- 2500 -->
      <g transform="translate(75.55 281.062089)scale(0.1 -0.1)">
       <use xlink:href="#DejaVuSans-32"/>
       <use xlink:href="#DejaVuSans-35" x="63.623047"/>
       <use xlink:href="#DejaVuSans-30" x="127.246094"/>
       <use xlink:href="#DejaVuSans-30" x="190.869141"/>
      </g>
     </g>
    </g>
    <g id="ytick_7">
     <g id="line2d_13">
      <g>
       <use xlink:href="#m2b93af219b" x="108" y="219.6443" style="stroke: #000000; stroke-width: 0.8"/>
      </g>
     </g>
     <g id="text_13">
      <!-- 3000 -->
      <g transform="translate(75.55 223.443518)scale(0.1 -0.1)">
       <defs>
        <path id="DejaVuSans-33" d="M 2597 2516 
Q 3050 2419 3304 2112 
Q 3559 1806 3559 1356 
Q 3559 666 3084 287 
Q 2609 -91 1734 -91 
Q 1441 -91 1130 -33 
Q 819 25 488 141 
L 488 750 
Q 750 597 1062 519 
Q 1375 441 1716 441 
Q 2309 441 2620 675 
Q 2931 909 2931 1356 
Q 2931 1769 2642 2001 
Q 2353 2234 1838 2234 
L 1294 2234 
L 1294 2753 
L 1863 2753 
Q 2328 2753 2575 2939 
Q 2822 3125 2822 3475 
Q 2822 3834 2567 4026 
Q 2313 4219 1838 4219 
Q 1578 4219 1281 4162 
Q 984 4106 628 3988 
L 628 4550 
Q 988 4650 1302 4700 
Q 1616 4750 1894 4750 
Q 2613 4750 3031 4423 
Q 3450 4097 3450 3541 
Q 3450 3153 3228 2886 
Q 3006 2619 2597 2516 
z
" transform="scale(0.015625)"/>
       </defs>
       <use xlink:href="#DejaVuSans-33"/>
       <use xlink:href="#DejaVuSans-30" x="63.623047"/>
       <use xlink:href="#DejaVuSans-30" x="127.246094"/>
       <use xlink:href="#DejaVuSans-30" x="190.869141"/>
      </g>
     </g>
    </g>
    <g id="ytick_8">
     <g id="line2d_14">
      <g>
       <use xlink:href="#m2b93af219b" x="108" y="162.025729" style="stroke: #000000; stroke-width: 0.8"/>
      </g>
     </g>
     <g id="text_14">
      <!-- 3500 -->
      <g transform="translate(75.55 165.824948)scale(0.1 -0.1)">
       <use xlink:href="#DejaVuSans-33"/>
       <use xlink:href="#DejaVuSans-35" x="63.623047"/>
       <use xlink:href="#DejaVuSans-30" x="127.246094"/>
       <use xlink:href="#DejaVuSans-30" x="190.869141"/>
      </g>
     </g>
    </g>
    <g id="ytick_9">
     <g id="line2d_15">
      <g>
       <use xlink:href="#m2b93af219b" x="108" y="104.407158" style="stroke: #000000; stroke-width: 0.8"/>
      </g>
     </g>
     <g id="text_15">
      <!-- 4000 -->
      <g transform="translate(75.55 108.206377)scale(0.1 -0.1)">
       <use xlink:href="#DejaVuSans-34"/>
       <use xlink:href="#DejaVuSans-30" x="63.623047"/>
       <use xlink:href="#DejaVuSans-30" x="127.246094"/>
       <use xlink:href="#DejaVuSans-30" x="190.869141"/>
      </g>
     </g>
    </g>
   </g>
   <g id="line2d_16">
    <path d="M 138.436364 275.678906 
L 144.585124 170.11324 
L 150.733884 212.669612 
L 156.882645 282.012344 
L 163.031405 202.010717 
L 169.180165 277.285723 
L 175.328926 267.680599 
L 181.477686 256.878783 
L 187.626446 256.384983 
L 193.775207 257.572908 
L 199.923967 270.654168 
L 206.072727 246.550913 
L 212.221488 312.729547 
L 218.370248 235.125692 
L 224.519008 255.67613 
L 230.667769 281.39354 
L 236.816529 283.319742 
L 242.965289 100.44 
L 249.11405 230.652359 
L 255.26281 212.332521 
L 261.41157 216.227479 
L 267.560331 264.31043 
L 273.709091 294.805761 
L 279.857851 169.274034 
L 286.006612 257.872551 
L 292.155372 280.579086 
L 298.304132 265.145894 
L 304.452893 189.956362 
L 310.601653 208.257864 
L 316.750413 187.870774 
L 322.899174 138.521642 
L 329.047934 284.496668 
L 335.196694 202.958015 
L 341.345455 281.060994 
L 347.494215 155.979285 
L 353.642975 254.640255 
L 359.791736 284.206739 
L 365.940496 248.677455 
L 372.089256 237.0143 
L 378.238017 233.34378 
L 384.386777 260.920739 
L 390.535537 260.41989 
L 396.684298 248.036564 
L 402.833058 271.665003 
L 408.981818 213.896448 
L 415.130579 222.281462 
L 421.279339 207.632547 
L 427.428099 200.678766 
L 433.57686 285.839521 
L 439.72562 185.279658 
L 445.87438 181.969497 
L 452.02314 244.397224 
L 458.171901 180.826212 
L 464.320661 298.676603 
L 470.469421 245.480724 
L 476.618182 291.174916 
L 482.766942 151.70467 
L 488.915702 305.507502 
L 495.064463 170.53109 
L 501.213223 244.899991 
L 507.361983 253.738099 
L 513.510744 273.159847 
L 519.659504 246.912731 
L 525.808264 295.215206 
L 531.957025 261.628 
L 538.105785 236.487644 
L 544.254545 179.235292 
L 550.403306 320.108311 
L 556.552066 310.845624 
L 562.700826 314.126487 
L 568.849587 294.083977 
L 574.998347 314.321928 
L 581.147107 228.232534 
L 587.295868 281.329625 
L 593.444628 255.605461 
L 599.593388 241.520116 
L 605.742149 137.65591 
L 611.890909 227.089155 
L 618.039669 263.237532 
L 624.18843 328.204044 
L 630.33719 272.434811 
L 636.48595 187.387243 
L 642.634711 276.608008 
L 648.783471 269.832551 
L 654.932231 247.406563 
L 661.080992 316.642571 
L 667.229752 282.273702 
L 673.378512 228.799864 
L 679.527273 165.191931 
L 685.676033 281.760006 
L 691.824793 232.075028 
L 697.973554 206.307919 
L 704.122314 274.51116 
L 710.271074 230.717884 
L 716.419835 153.760163 
L 722.568595 195.618495 
L 728.717355 197.817822 
L 734.866116 301.909125 
L 741.014876 214.243281 
L 747.163636 273.178477 
" clip-path="url(#p52a2a8deab)" style="fill: none; stroke: #1f77b4; stroke-width: 1.5; stroke-linecap: square"/>
   </g>
   <g id="line2d_17">
    <path d="M 138.436364 291.708844 
L 144.585124 186.877 
L 150.733884 225.801912 
L 156.882645 310.728041 
L 163.031405 227.221882 
L 169.180165 292.827238 
L 175.328926 303.017451 
L 181.477686 284.90534 
L 187.626446 280.272152 
L 193.775207 271.714542 
L 199.923967 290.186537 
L 206.072727 280.765121 
L 212.221488 324.792573 
L 218.370248 279.659432 
L 224.519008 284.176045 
L 230.667769 295.531739 
L 236.816529 323.811501 
L 242.965289 131.832849 
L 249.11405 264.462243 
L 255.26281 251.884084 
L 261.41157 249.464321 
L 267.560331 290.388652 
L 273.709091 329.117338 
L 279.857851 205.021978 
L 286.006612 304.402455 
L 292.155372 301.68375 
L 298.304132 317.263687 
L 304.452893 208.529553 
L 310.601653 237.777772 
L 316.750413 222.223072 
L 322.899174 172.488792 
L 329.047934 297.118024 
L 335.196694 241.779551 
L 341.345455 305.231416 
L 347.494215 188.621712 
L 353.642975 311.894282 
L 359.791736 303.85621 
L 365.940496 274.281191 
L 372.089256 260.368434 
L 378.238017 282.189577 
L 384.386777 289.098747 
L 390.535537 291.805978 
L 396.684298 302.806112 
L 402.833058 296.566396 
L 408.981818 248.975516 
L 415.130579 269.974213 
L 421.279339 225.870788 
L 427.428099 267.387831 
L 433.57686 308.188424 
L 439.72562 224.462981 
L 445.87438 227.540637 
L 452.02314 302.872122 
L 458.171901 213.665092 
L 464.320661 313.959046 
L 470.469421 271.967132 
L 476.618182 304.20008 
L 482.766942 178.823337 
L 488.915702 316.840643 
L 495.064463 206.122821 
L 501.213223 275.06021 
L 507.361983 273.684185 
L 513.510744 285.835202 
L 519.659504 299.925523 
L 525.808264 318.817916 
L 531.957025 290.633399 
L 538.105785 260.462187 
L 544.254545 201.573321 
L 550.403306 332.620148 
L 556.552066 325.842519 
L 562.700826 329.019509 
L 568.849587 306.808567 
L 574.998347 329.106098 
L 581.147107 259.47101 
L 587.295868 309.376383 
L 593.444628 277.749587 
L 599.593388 269.135916 
L 605.742149 164.83123 
L 611.890909 251.829821 
L 618.039669 291.631188 
L 624.18843 339.519768 
L 630.33719 309.767954 
L 636.48595 219.915621 
L 642.634711 313.732576 
L 648.783471 303.725726 
L 654.932231 267.519764 
L 661.080992 330.913798 
L 667.229752 305.840243 
L 673.378512 260.552744 
L 679.527273 193.869315 
L 685.676033 301.595964 
L 691.824793 261.141345 
L 697.973554 252.697756 
L 704.122314 303.248302 
L 710.271074 268.751397 
L 716.419835 172.812821 
L 722.568595 235.654054 
L 728.717355 231.777556 
L 734.866116 321.841883 
L 741.014876 243.600275 
L 747.163636 297.56053 
" clip-path="url(#p52a2a8deab)" style="fill: none; stroke: #ff7f0e; stroke-width: 1.5; stroke-linecap: square"/>
   </g>
   <g id="line2d_18">
    <path d="M 138.436364 549.325786 
L 144.585124 548.591964 
L 150.733884 552.223423 
L 156.882645 536.640028 
L 163.031405 540.144559 
L 169.180165 549.814209 
L 175.328926 530.018872 
L 181.477686 537.329166 
L 187.626446 541.468555 
L 193.775207 551.21409 
L 199.923967 545.823355 
L 206.072727 531.141517 
L 212.221488 553.292698 
L 218.370248 520.821984 
L 224.519008 536.855809 
L 230.667769 551.217525 
L 236.816529 524.863964 
L 242.965289 533.962875 
L 249.11405 531.545839 
L 255.26281 525.804161 
L 261.41157 532.118881 
L 267.560331 539.277502 
L 273.709091 531.044147 
L 279.857851 529.60778 
L 286.006612 518.82582 
L 292.155372 544.25106 
L 298.304132 513.237931 
L 304.452893 546.782533 
L 310.601653 535.835815 
L 316.750413 531.003426 
L 322.899174 531.388575 
L 329.047934 552.734368 
L 335.196694 526.534188 
L 341.345455 541.185302 
L 347.494215 532.713297 
L 353.642975 508.101697 
L 359.791736 545.706253 
L 365.940496 539.751988 
L 372.089256 542.001589 
L 378.238017 516.509927 
L 384.386777 537.177716 
L 390.535537 533.969636 
L 396.684298 510.586176 
L 402.833058 540.454332 
L 408.981818 530.276656 
L 415.130579 517.662973 
L 421.279339 547.117483 
L 427.428099 498.646658 
L 433.57686 543.006821 
L 439.72562 526.172401 
L 445.87438 519.784585 
L 452.02314 506.880826 
L 458.171901 532.516844 
L 464.320661 550.073281 
L 470.469421 538.869316 
L 476.618182 552.33056 
L 482.766942 538.237056 
L 488.915702 554.022582 
L 495.064463 529.763993 
L 501.213223 535.195504 
L 507.361983 545.409638 
L 513.510744 552.680368 
L 519.659504 512.342932 
L 525.808264 541.753014 
L 531.957025 536.350325 
L 538.105785 541.381181 
L 544.254545 543.017696 
L 550.403306 552.843888 
L 556.552066 550.358829 
L 562.700826 550.462702 
L 568.849587 552.631134 
L 574.998347 550.571554 
L 581.147107 534.117248 
L 587.295868 537.308966 
L 593.444628 543.211598 
L 599.593388 537.739924 
L 605.742149 538.180404 
L 611.890909 540.615059 
L 618.039669 536.962068 
L 624.18843 554.04 
L 630.33719 528.022581 
L 636.48595 532.827346 
L 642.634711 528.231156 
L 648.783471 531.462549 
L 654.932231 545.242523 
L 661.080992 551.084497 
L 667.229752 541.789183 
L 673.378512 533.602844 
L 679.527273 536.678341 
L 685.676033 545.519766 
L 691.824793 536.289407 
L 697.973554 518.965887 
L 704.122314 536.618583 
L 710.271074 527.322211 
L 716.419835 546.303067 
L 722.568595 525.320165 
L 728.717355 531.39599 
L 734.866116 545.422966 
L 741.014876 535.99873 
L 747.163636 540.973672 
" clip-path="url(#p52a2a8deab)" style="fill: none; stroke: #2ca02c; stroke-width: 1.5; stroke-linecap: square"/>
   </g>
   <g id="patch_3">
    <path d="M 108 576.72 
L 108 77.76 
" style="fill: none; stroke: #000000; stroke-width: 0.8; stroke-linejoin: miter; stroke-linecap: square"/>
   </g>
   <g id="patch_4">
    <path d="M 777.6 576.72 
L 777.6 77.76 
" style="fill: none; stroke: #000000; stroke-width: 0.8; stroke-linejoin: miter; stroke-linecap: square"/>
   </g>
   <g id="patch_5">
    <path d="M 108 576.72 
L 777.6 576.72 
" style="fill: none; stroke: #000000; stroke-width: 0.8; stroke-linejoin: miter; stroke-linecap: square"/>
   </g>
   <g id="patch_6">
    <path d="M 108 77.76 
L 777.6 77.76 
" style="fill: none; stroke: #000000; stroke-width: 0.8; stroke-linejoin: miter; stroke-linecap: square"/>
   </g>
  </g>
 </g>
 <defs>
  <clipPath id="p52a2a8deab">
   <rect x="108" y="77.76" width="669.6" height="498.96"/>
  </clipPath>
 </defs>
</svg>
